<svg class="mouse" viewBox="0 0 1468 629" version="1.1" xmlns="http://www.w3.org/2000/svg" xmlns:xlink="http://www.w3.org/1999/xlink" xml:space="preserve" xmlns:serif="http://www.serif.com/" style="
        fill-rule: evenodd;
        clip-rule: evenodd;
        stroke-linejoin: round;
        stroke-miterlimit: 2;


    --color-1: #313439;
    --color-2: #212224;
    --color-4: #262a2d;
    --color-3: #43474d;
      ">
      <rect id="Artboard5" x="0" y="-0" width="1467.74" height="628.828" style="fill: none"></rect>
      <clipPath id="_clip1">
        <rect x="0" y="-0" width="1467.74" height="628.828"></rect>
      </clipPath>
      <g clip-path="url(#_clip1)">
        <g>
          <path d="M0.392,629.029l-0,0c-0,-207.382 328.836,-375.75 733.869,-375.75c405.034,0 733.87,168.368 733.87,375.75l-0,0l-1467.74,0Z" style="fill: var(--color-1)"></path>
          <path d="M0.392,629.029l-0,0c-0,-207.382 328.836,-375.75 733.869,-375.75c405.034,0 733.87,168.368 733.87,375.75l-0,0l-1467.74,0Zm1459.57,-8l-1451.39,0c3.298,-77.543 54.389,-148.852 138.08,-207.294c132.541,-92.553 346.502,-152.456 587.617,-152.456c241.116,0 455.076,59.903 587.617,152.456c83.692,58.442 134.782,129.751 138.081,207.294Z" style="fill: var(--color-1)"></path>
          <path id="Ellipse_32" d="M227.267,450.889c33.607,-14.267 65.254,-15.572 70.629,-2.913c5.375,12.66 -17.546,34.521 -51.153,48.789c-33.607,14.267 -65.255,15.572 -70.63,2.913c-5.374,-12.66 17.547,-34.521 51.154,-48.789Z" style="fill: var(--color-2)"></path>
          <path id="Ellipse_34" d="M379.546,335.271c35.249,-9.451 65.094,-12.544 66.607,-6.903c1.512,5.641 -25.878,17.893 -61.127,27.344c-35.248,9.451 -65.094,12.544 -66.606,6.903c-1.513,-5.641 25.877,-17.893 61.126,-27.344Z" style="fill: var(--color-2)"></path>
          <path id="Ellipse_33" d="M1287.56,438.96c43.192,21.044 71.606,51.784 63.411,68.603c-8.195,16.82 -49.914,13.391 -93.106,-7.652c-43.192,-21.044 -71.606,-51.784 -63.411,-68.604c8.195,-16.82 49.914,-13.39 93.106,7.653Z" style="fill: var(--color-2)"></path>
        </g>
        <g>
          <path d="M529.568,629.029c-0.104,-3.968 -0.122,-7.976 -0.052,-12.025c1.21,-69.327 28.06,-125.72 60.847,-129.899c25.529,-103.149 80.312,-174.535 143.712,-174.535c63.364,0 118.122,71.307 143.668,174.361c32.831,4.033 59.862,60.396 61.25,129.776c0.083,4.152 0.072,8.26 -0.028,12.322l-409.397,0Z" style="fill: var(--color-3)"></path>
          <ellipse cx="734.261" cy="399.578" rx="126.011" ry="78.007" style="fill: var(--color-2)"></ellipse>
          <ellipse cx="734.261" cy="399.578" rx="121.511" ry="73.507" style="fill: none"></ellipse>
          <path id="Ellipse_14" d="M794.886,399.578c3.462,17.487 5.381,36.761 5.381,57.005c0,9.363 -0.41,18.519 -1.195,27.396l-129.621,-0c-0.785,-8.877 -1.196,-18.033 -1.196,-27.396c0,-20.244 1.919,-39.518 5.381,-57.005l121.25,0Z" style="fill: var(--color-3)"></path>
          <path d="M607.523,398.078c0.51,-17.023 9.69,-32.837 25.22,-45.65c22.91,-18.902 59.841,-31.321 101.518,-31.321c41.678,-0 78.608,12.419 101.518,31.321c15.531,12.813 24.71,28.627 25.221,45.65l0.023,0l-0,39.004c-0.001,5.189 -0.866,10.377 -2.574,15.417c-1.666,4.912 -4.152,9.744 -7.388,14.361c-3.176,4.533 -7.108,8.906 -11.686,12.997c-4.533,4.049 -9.741,7.859 -15.479,11.323c-5.736,3.461 -12.048,6.604 -18.761,9.342c-6.777,2.763 -14.021,5.137 -21.532,7.054c-15.628,3.989 -32.228,6.012 -49.34,6.012c-17.114,0 -33.715,-2.023 -49.342,-6.012c-7.514,-1.918 -14.758,-4.292 -21.532,-7.054c-6.713,-2.737 -13.025,-5.88 -18.761,-9.342c-5.738,-3.464 -10.946,-7.274 -15.48,-11.323c-4.578,-4.091 -8.51,-8.464 -11.686,-12.997c-3.236,-4.617 -5.721,-9.449 -7.387,-14.361c-1.708,-5.04 -2.575,-10.228 -2.575,-15.417l-0,-39.004l0.023,0Zm236.787,25.999c-2.631,2.77 -5.555,5.444 -8.759,8.009c-7.726,6.187 -16.926,11.618 -27.342,16.141c-10.547,4.579 -22.13,8.135 -34.429,10.568c-12.716,2.516 -26.01,3.791 -39.517,3.791c-13.509,0 -26.805,-1.275 -39.519,-3.791c-12.297,-2.433 -23.881,-5.988 -34.43,-10.568c-10.418,-4.524 -19.616,-9.955 -27.342,-16.141c-3.207,-2.567 -6.131,-5.243 -8.763,-8.014c-4.922,-7.593 -7.655,-15.839 -7.655,-24.494c0,-15.056 8.27,-28.878 21.951,-40.166c21.592,-17.814 56.478,-29.251 95.756,-29.251c39.278,0 74.165,11.437 95.756,29.251c13.682,11.288 21.951,25.11 21.951,40.166c0,8.656 -2.733,16.904 -7.658,24.499Z" style="fill: var(--color-2)"></path>
          <path id="Path_29" d="M794.56,517.928c7.927,-1.304 15.778,-3.034 23.519,-5.183c7.682,-2.272 15.235,-4.958 22.625,-8.049c3.956,-1.134 8.144,1.187 9.278,5.143l5.789,20.188c1.134,3.955 -1.187,8.143 -5.143,9.278c-7.448,3.102 -15.056,5.805 -22.793,8.096c-7.684,2.138 -15.479,3.852 -23.351,5.135c-3.956,1.135 -8.144,-1.187 -9.278,-5.142l-5.789,-20.188c-1.134,-3.956 1.187,-8.144 5.143,-9.278Z" style="fill: var(--color-4); fill-rule: nonzero"></path>
          <path d="M733.376,438.997c-75.399,-3.942 -197.966,-93.463 -197.966,-203.326c0,-13.766 1.183,-26.78 3.489,-39.019c-120.166,-22.178 -131.91,-133.642 -93.044,-172.045c42.858,-42.347 123.478,-34.683 170.785,63.669c31.587,-17.398 71.38,-26.68 117.621,-27.209l1.083,0.014c45.779,0.66 85.198,9.932 116.539,27.195c47.307,-98.352 127.927,-106.016 170.784,-63.669c38.867,38.403 27.123,149.867 -93.043,172.045c2.305,12.239 3.488,25.253 3.488,39.019c0,110.293 -123.528,200.085 -198.851,203.369l-0.885,-0.043Z" style="fill: var(--color-3); fill-rule: nonzero"></path>
          <path d="M841.219,394.563l0,13.49c-35.991,25.294 -75.235,40.557 -106.481,41.919c-0.334,0.014 -0.668,0.014 -1.001,-0.002l-0.932,-0.045c-31.076,-1.625 -69.88,-16.836 -105.5,-41.871l-0,-13.489c35.404,26.437 74.796,42.797 106.071,44.432l0.885,0.043c31.418,-1.37 71.221,-17.79 106.958,-44.477Z" style="fill: var(--color-1)"></path>
          <path d="M841.219,394.563l0,13.49c-35.991,25.294 -75.235,40.557 -106.481,41.919c-0.334,0.014 -0.668,0.014 -1.001,-0.002l-0.932,-0.045c-31.076,-1.625 -69.88,-16.836 -105.5,-41.871l-0,-13.489c35.404,26.437 74.796,42.797 106.071,44.432l0.885,0.043c31.418,-1.37 71.221,-17.79 106.958,-44.477Z" style="fill: var(--color-2)"></path>
          <path d="M946.56,169.515c40.059,-9.789 72.117,-49.385 67.75,-94.669c-4.43,-45.927 -48.267,-47.347 -72.451,-21.959c-37.635,39.508 -8.233,60.067 4.701,116.628Z" style="fill: var(--color-4)"></path>
          <path d="M1005.41,50.318c0,0 -23.776,-5.622 -47.798,8.057c-29.58,16.844 -29.121,34.579 -11.054,111.14c-7.786,1.963 -15.026,3.888 -20.529,4.127c-11.92,-47.099 -22.697,-57.999 -19.884,-99.25c10.972,-42.259 70.479,-62.495 99.265,-24.074Z" style="fill: var(--color-1)"></path>
          <path d="M521.962,169.515c-40.058,-9.789 -72.117,-49.385 -67.749,-94.669c4.429,-45.927 48.267,-47.347 72.45,-21.959c37.635,39.508 8.233,60.067 -4.701,116.628Z" style="fill: var(--color-4)"></path>
          <path d="M463.11,50.318c0,0 23.776,-5.622 47.799,8.057c29.579,16.844 29.12,34.579 11.053,111.14c7.787,1.963 15.027,3.888 20.53,4.127c11.919,-47.099 22.697,-57.999 19.883,-99.25c-10.972,-42.259 -70.478,-62.495 -99.265,-24.074Z" style="fill: var(--color-1)"></path>
          <ellipse id="Ellipse_5" cx="734.261" cy="374.076" rx="45.004" ry="46.504" style="fill: var(--color-2)"></ellipse>
          <path d="M754.791,260.495c3.665,-26.078 28.139,-44.521 54.218,-40.856c26.078,3.665 44.521,28.14 40.856,54.218c-3.665,26.078 -28.14,44.521 -54.218,40.856c-26.078,-3.665 -44.522,-28.139 -40.856,-54.218Z" style="fill: none; fill-rule: nonzero"></path>
          <path d="M754.791,260.495c3.689,-26.254 27.964,-44.545 54.218,-40.856c26.254,3.69 44.545,27.964 40.856,54.218c-1.038,7.384 -7.865,12.529 -15.249,11.491c-7.384,-1.038 -12.529,-7.865 -11.491,-15.249c1.612,-11.468 -6.407,-22.108 -17.874,-23.72c-11.468,-1.612 -22.109,6.407 -23.721,17.874c-1.038,7.384 -7.865,12.529 -15.249,11.491c-7.384,-1.037 -12.528,-7.865 -11.49,-15.249Z" style="fill: var(--color-2); fill-rule: nonzero"></path>
          <path d="M618.658,273.857c-3.665,-26.078 14.778,-50.553 40.856,-54.218c26.078,-3.665 50.553,14.778 54.218,40.856c3.665,26.078 -14.778,50.553 -40.856,54.218c-26.078,3.665 -50.553,-14.778 -54.218,-40.856Z" style="fill: none; fill-rule: nonzero"></path>
          <path d="M618.658,273.857c-3.69,-26.254 14.602,-50.528 40.856,-54.218c26.254,-3.69 50.528,14.602 54.218,40.856c1.038,7.384 -4.107,14.211 -11.491,15.249c-7.384,1.038 -14.211,-4.107 -15.249,-11.491c-1.611,-11.467 -12.252,-19.486 -23.72,-17.874c-11.468,1.611 -19.486,12.252 -17.875,23.72c1.038,7.384 -4.106,14.211 -11.49,15.249c-7.384,1.038 -14.211,-4.107 -15.249,-11.491Z" style="fill: var(--color-2); fill-rule: nonzero"></path>
          <path d="M899.11,387.28c-0.319,0 -0.63,-0.008 -0.949,-0.025l-62.919,-3.298c-0.346,-0.018 -0.706,-0.047 -1.067,-0.087l-7.026,-0.777l1.909,-6.807c1.303,-4.645 1.963,-9.426 1.963,-14.208c0,-2.418 -0.17,-4.861 -0.505,-7.261l-0.472,-3.37l-1.844,0.491l-0.002,-6.847c-2.106,-6.214 -5.375,-12.196 -9.721,-17.793l-3.396,-4.373l4.086,-3.736c1.583,-1.448 3.401,-2.592 5.404,-3.401l38.946,-15.733c2.158,-0.873 4.428,-1.315 6.742,-1.315c3.545,-0 6.985,1.037 9.947,2.999c3.042,2.015 5.374,4.872 6.744,8.262c1.803,4.453 1.761,9.346 -0.119,13.775c-1.875,4.425 -5.366,7.856 -9.828,9.659l-36.506,14.748l59.545,3.121c9.908,0.52 17.551,9.005 17.039,18.915c-0.502,9.569 -8.395,17.061 -17.971,17.061Zm-329.698,0c-9.575,0 -17.467,-7.492 -17.968,-17.057c-0.253,-4.794 1.382,-9.406 4.603,-12.983c3.22,-3.576 7.636,-5.685 12.432,-5.936l59.547,-3.121l-36.506,-14.748c-4.461,-1.803 -7.95,-5.233 -9.83,-9.66c-1.876,-4.428 -1.918,-9.32 -0.116,-13.776c1.364,-3.384 3.695,-6.242 6.736,-8.259c2.968,-1.964 6.408,-3 9.953,-3c2.317,-0 4.586,0.442 6.745,1.315l38.945,15.734c2.584,1.043 4.831,2.62 6.677,4.688l3.28,3.675l-2.965,3.933c-4.102,5.442 -7.196,11.243 -9.203,17.255l0,5.936l-1.706,-0.235l-0.534,3.829c-0.331,2.379 -0.499,4.804 -0.499,7.208c-0,4.698 0.64,9.404 1.903,13.986l1.654,6.004l-6.061,1.43c-1.053,0.248 -2.136,0.403 -3.221,0.459l-62.915,3.298c-0.316,0.017 -0.637,0.025 -0.951,0.025Z" style="fill: var(--color-2); fill-rule: nonzero"></path>
          <path d="M899.11,381.28c6.383,-0 11.644,-4.995 11.978,-11.371c0.341,-6.608 -4.754,-12.266 -11.359,-12.613l-62.92,-3.298c-0.112,-0.005 -0.227,-0.01 -0.338,-0.014l-0.013,0.001c0.373,2.67 0.564,5.393 0.564,8.093c-0,5.33 -0.736,10.655 -2.186,15.828c0.242,0.027 0.484,0.047 0.719,0.059l62.92,3.297c0.215,0.012 0.423,0.018 0.635,0.018m-329.698,-0c0.21,-0 0.424,-0.006 0.637,-0.018l62.918,-3.297c0.724,-0.038 1.448,-0.14 2.154,-0.307c-1.405,-5.099 -2.119,-10.341 -2.119,-15.58c0,-2.682 0.188,-5.385 0.557,-8.036c-0.611,-0.061 -1.232,-0.076 -1.846,-0.044l-62.919,3.298c-3.197,0.168 -6.14,1.574 -8.287,3.959c-2.148,2.385 -3.239,5.459 -3.071,8.654c0.334,6.376 5.595,11.371 11.976,11.371m66.33,-36.888l-0,-0.001c2.2,-6.971 5.703,-13.672 10.411,-19.918c-1.227,-1.375 -2.724,-2.425 -4.447,-3.12l-38.947,-15.735c-3.65,-1.476 -7.865,-1.04 -11.133,1.124c-2.025,1.342 -3.578,3.246 -4.489,5.507c-1.201,2.97 -1.174,6.231 0.078,9.182c1.252,2.952 3.58,5.239 6.552,6.44l38.947,15.734c0.975,0.394 1.994,0.659 3.026,0.787l0.002,0m198.457,-0.264l0.001,0c0.55,-0.137 1.09,-0.313 1.609,-0.523l38.946,-15.734c2.976,-1.202 5.302,-3.489 6.553,-6.44c1.253,-2.951 1.28,-6.212 0.078,-9.182c-0.914,-2.262 -2.469,-4.167 -4.492,-5.507c-3.268,-2.164 -7.477,-2.6 -11.129,-1.124l-38.948,15.735c-1.335,0.538 -2.546,1.3 -3.601,2.264c4.979,6.412 8.676,13.312 10.983,20.51l-0,0.001m64.911,49.153l-1.298,-0.036l-77.86,-4.081l3.328,-14.498c1.155,-4.118 1.741,-8.354 1.741,-12.588c-0,-2.145 -0.151,-4.309 -0.448,-6.43l-0.556,-3.968l-1.246,-3.889c-1.877,-5.855 -4.917,-11.511 -9.033,-16.813l-6.792,-8.745l8.172,-7.473c2.114,-1.933 4.538,-3.459 7.207,-4.536l38.945,-15.733c7.269,-2.94 15.718,-2.079 22.25,2.245c4.058,2.688 7.167,6.497 8.992,11.017c2.404,5.936 2.35,12.462 -0.157,18.367c-2.502,5.9 -7.156,10.475 -13.104,12.878l-11.419,4.614l32.525,1.7c13.208,0.693 23.399,12.005 22.716,25.216c-0.668,12.763 -11.194,22.753 -23.963,22.753Zm-329.698,0c-12.767,0 -23.293,-9.99 -23.961,-22.744c-0.337,-6.394 1.843,-12.544 6.137,-17.313c4.294,-4.767 10.18,-7.577 16.577,-7.912l32.516,-1.705l-11.41,-4.609c-5.946,-2.403 -10.599,-6.977 -13.104,-12.878c-2.503,-5.907 -2.559,-12.429 -0.155,-18.371c1.816,-4.508 4.925,-8.32 8.983,-11.01c6.544,-4.33 14.985,-5.189 22.262,-2.247l38.945,15.733c3.442,1.39 6.44,3.495 8.904,6.256l6.561,7.349l-5.93,7.867c-3.885,5.154 -6.762,10.64 -8.551,16.306l-1.198,3.795l-0.542,3.9c-0.293,2.104 -0.443,4.25 -0.443,6.38c0,4.159 0.567,8.329 1.688,12.392l3.308,12.008l-12.121,2.86c-1.407,0.332 -2.848,0.537 -4.288,0.612l-64.178,3.331Z" style="fill: var(--color-3); fill-rule: nonzero"></path>
        </g>
      </g>
    </svg>