<svg xmlns="http://www.w3.org/2000/svg" xml:space="preserve" id="Layer_1" x="0" y="0" style="enable-background:new 0 0 512 512" version="1.1" viewBox="0 0 512 512"><style>.st0{fill:none}.st4{fill:#86c054}.st45{fill:#fff;stroke:#000;stroke-width:5.25;stroke-linecap:round;stroke-linejoin:round;stroke-miterlimit:10}</style><path d="M244.9 101.8 118.7.5zM321.1 36.1l34.1 168.8zM154 157.9 118.8.9l27.9 124.6L0 208l146.7-82.5zM0 380.3l53.7 16.9zM255.2 177.7h-.1l-34.6 137.5-119.4 77.1 119.4-77.1zM424.6 29.5 436.5 0zM120.6 0h-2.4l.5.5z" class="st0"/><path d="M118.2 0H0v56.2L118.7.5z" style="fill:#2b5198"/><path d="M462.3 0h-25.9l-11.8 29.5z" style="fill:#9eba3c"/><path d="M436.4 0h-6l-5.9 29.5z" style="fill:#9dc247"/><path d="M430.4 0h-31.6l25.7 29.5z" class="st4"/><path d="M424.5 29.5 398.8 0h-59.7l-18 36.1z" class="st4"/><path d="M339.1 0h-29.8l11.8 36.1z" style="fill:#6ab76e"/><path d="M321.1 36.1 309.3 0h-32.5l-31.9 101.8z" style="fill:#61b47b"/><path d="M244.9 101.8 276.8 0H120.6l-1.9.5z" style="fill:#469b9b"/><path d="m118.7.5.1.4 35.2 157 90.9-56.1z" style="fill:#4189a9"/><path d="M0 56.2v122L118.7.5z" style="fill:#334890"/><path d="m118.8.9-.1-.4L0 178.2V208l146.7-82.5z" style="fill:#3860aa"/><path d="M146.7 125.5 0 208v6.3l154-56.4z" style="fill:#3e5aa4"/><path d="M0 214.3v47.9l154-104.3z" style="fill:#484494"/><path d="M154 157.9 0 262.2v42.4l101.1 87.7z" style="fill:#53398c"/><path d="m154 157.9-52.9 234.4 119.4-77.1z" style="fill:#a95b7b"/><path d="M255.1 177.7 154 157.9l66.5 157.3z" style="fill:#8a8967"/><path d="M244.9 101.8 154 157.9l101.1 19.8z" style="fill:#509587"/><path d="M255.1 177.7h.1l100 27.2-110.3-103.1z" style="fill:#c3c83c"/><path d="M355.2 204.9 321.1 36.1l-76.2 65.7z" style="fill:#aad35e"/><path d="m424.5 29.5-69.3 175.4L512 177.2v-75.7z" style="fill:#faed4b"/><path d="m424.5 29.5-103.4 6.6 34.1 168.8z" style="fill:#b1c83c"/><path d="M424.5 29.5 512 6.6V0h-49.7l-37.7 29.5z" style="fill:#a6a92e"/><path d="m424.5 29.5 87.5 72V6.6z" style="fill:#f8e644"/><path d="M439.7 382.7 512 275.8v-98.6l-156.8 27.7z" style="fill:#fde145"/><path d="m258.8 300.3 180.9 82.4-84.5-177.8z" style="fill:#fbd44a"/><path d="m258.8 300.3 96.4-95.4-100-27.2z" style="fill:#fad247"/><path d="m255.2 177.7-34.7 137.5 38.3-14.9z" style="fill:#f8b456"/><path d="M220.5 315.2 280 436.1l-21.2-135.8z" style="fill:#f7804f"/><path d="m280 436.1 159.7-53.4-180.9-82.4z" style="fill:#fd9b45"/><path d="m280 436.1 33.4 75.9h35.8l90.5-129.3z" style="fill:#fa7b45"/><path d="M439.7 382.7 349.2 512h83.3z" style="fill:#fc7f4d"/><path d="M432.5 512h53.8l25.7-22.6v-33.8l-72.3-72.9z" style="fill:#fe9a42"/><path d="M512 455.6v-70.1l-72.3-2.8z" style="fill:#feb040"/><path d="M512 385.5V275.8l-72.3 106.9z" style="fill:#ffdd47"/><path d="M512 512v-22.6L486.3 512z" style="fill:#fb7440"/><path d="M264.8 512h48.6L280 436.1z" style="fill:#ef514c"/><path d="M101.1 392.3 280 436.1l-59.5-120.9z" style="fill:#f55f6e"/><path d="M101.1 392.3 168.5 512H201l79-75.9z" style="fill:#ec4b6f"/><path d="M201 512h63.8l15.2-75.9z" style="fill:#ea4754"/><path d="M0 485.1V512h160.9L53.7 397.2z" style="fill:#d33b7a"/><path d="M53.7 397.2 160.9 512h7.6l-67.4-119.7z" style="fill:#dd4073"/><path d="M101.1 392.3 0 304.6v15.5l53.7 77.1z" style="fill:#6b236b"/><path d="M0 320.1v60.2l53.7 16.9z" style="fill:#612770"/><path d="M0 380.3v104.8l53.7-87.9z" style="fill:#8c286b"/><g id="layer1_00000092418532499058005660000010785271004094054045_" transform="translate(-36.380379 -256.78621)"><path id="path817-3_00000016783017030312699050000005188398321492582052_" d="M136.8 377.8h-1.3c-2 0-3.9.1-5.8.4-15.3 1.8-29 9.9-37.4 24.1-8.2 13.9-10.3 29.2-6.1 43.3 4.2 14.1 14.4 27 29.5 37.2.1 0 .2.1.2.1 12.9 7.7 25.8 13 39.6 15.7-.4 5.8-.4 11.5 0 17.5 1.1 18.1 7.5 34.7 17.1 49.5l-34.5 14.3c-3.8 1.4-5.6 5.8-4 9.4 1.5 3.8 5.8 5.5 9.5 3.9l38.3-15.6c7 8.5 15.3 16.1 23.9 22.8.4.2.7.5 1.1.8l-22.4 29.6c-2.5 3.2-1.9 7.7 1.4 10.2 3.2 2.5 7.7 1.8 10.2-1.5l22.8-30.1c12.4 7.9 25.7 14.1 38.9 18.2 6.7 12.3 19.8 20.2 35 20.2 15.3 0 28.4-8.5 35.1-20.5 12.9-4.1 26.1-10.3 38.4-18.2l23 30.5c2.3 3.3 6.9 3.9 10.2 1.5 3.3-2.3 3.8-7 1.4-10.2L378 600.8c.1-.1.4-.2.5-.4 8.7-6.6 16.7-14.1 23.8-22.4l37.2 15.3c3.8 1.5 8-.2 9.5-3.9 1.5-3.8-.4-8-4.1-9.4l-33.7-13.7c10-14.8 16.7-31.6 18.1-49.9.5-6 .6-11.9.2-17.6 13.7-2.7 26.5-8 39.3-15.7.1 0 .2-.1.2-.1 15.1-10.2 25.2-23 29.5-37.2 4.2-14.2 2.2-29.5-6.1-43.3-8.5-14.2-22.2-22.3-37.4-24.1-1.9-.2-3.9-.4-5.8-.4-13.6-.2-28.2 4-42.1 12.1-10.3 6-19.6 15-26.9 24.9-20.3-11.6-46.7-18.2-79.2-18.7h-8.9c-36.2.6-65.2 7.4-87.1 19.8-.1-.1-.1-.1-.1-.2-7.4-10.3-16.9-19.7-27.5-25.8-13.4-8.1-27.4-12.3-40.6-12.3h0z" style="fill:none;stroke:#fff;stroke-width:5.25;stroke-linecap:round;stroke-linejoin:round;stroke-miterlimit:10"/><path id="path1087_00000132810757152909905230000000992923811777627269_" d="M384.8 419.3c6.9-9.6 16-18.5 25.5-24.1 30.1-17.4 61.9-15 76.8 10.1 14.9 25.1 6.8 52.9-21.5 72.1-14.4 8.7-28.4 14-43.9 16.1m-221.8-74.2c-6.9-9.6-16-18.5-25.5-24.1-30.1-17.4-61.9-15-76.8 10.1-14.9 25.1-6.8 52.9 21.5 72.1 14.4 8.7 28.4 14 43.9 16.1" class="st45"/><path id="path969_00000026149126356666619380000005201206681269014717_" d="M423 515.8c5.2-67.6-36.4-115-130.5-113.4S157.9 448.7 162 515.8c3.8 64.1 79.7 111.2 130 111.2s126-47.2 131-111.2z" class="st45"/><path id="path1084_00000059302391024560720460000014722008476341810870_" d="M336.8 546.2c0 10.4 8.5 18.9 18.9 18.9s18.9-8.5 18.9-18.9c0-10.4-8.5-18.9-18.9-18.9s-18.9 8.5-18.9 18.9zm-126.5 0c0 10.6 8.6 19 19 19s19-8.6 19-19c0-10.6-8.6-19-19-19s-19 8.6-19 19z"/><path id="path1008_00000029036177936675273680000011696966013774514822_" d="m214.6 602.6-24.7 32.6m180.2-32.6 24.7 32.6m-214.5-64.8-39.6 16.2m261.7-16.2 39.6 16.2" style="fill:none;stroke:#000;stroke-width:6;stroke-linecap:round;stroke-miterlimit:10"/><path id="path1115_00000034811848344641319500000015673934847231637895_" d="M292.4 577.4c-20.7 0-33.9 14.3-33.5 32 .5 19.1 14.7 32 33.5 32s33.5-14.9 33.5-32c0-17.7-12.8-32-33.5-32z" class="st45"/></g></svg>