<?xml version="1.0" encoding="utf-8"?>
<!-- Generator: Adobe Illustrator 27.6.1, SVG Export Plug-In . SVG Version: 6.00 Build 0)  -->
<svg version="1.1" id="Layer_1" xmlns="http://www.w3.org/2000/svg" xmlns:xlink="http://www.w3.org/1999/xlink" x="0px" y="0px"
	 viewBox="0 0 512 512" style="enable-background:new 0 0 512 512;" xml:space="preserve">
<style type="text/css">
	.st0{fill:none;}
	.st1{fill:#2B5198;}
	.st2{fill:#9EBA3C;}
	.st3{fill:#9DC247;}
	.st4{fill:#86C054;}
	.st5{fill:#6AB76E;}
	.st6{fill:#61B47B;}
	.st7{fill:#469B9B;}
	.st8{fill:#4189A9;}
	.st9{fill:#334890;}
	.st10{fill:#3860AA;}
	.st11{fill:#3E5AA4;}
	.st12{fill:#484494;}
	.st13{fill:#53398C;}
	.st14{fill:#A95B7B;}
	.st15{fill:#8A8967;}
	.st16{fill:#509587;}
	.st17{fill:#C3C83C;}
	.st18{fill:#AAD35E;}
	.st19{fill:#FAED4B;}
	.st20{fill:#B1C83C;}
	.st21{fill:#A6A92E;}
	.st22{fill:#F8E644;}
	.st23{fill:#FDE145;}
	.st24{fill:#FBD44A;}
	.st25{fill:#FAD247;}
	.st26{fill:#F8B456;}
	.st27{fill:#F7804F;}
	.st28{fill:#FD9B45;}
	.st29{fill:#FA7B45;}
	.st30{fill:#FC7F4D;}
	.st31{fill:#FE9A42;}
	.st32{fill:#FEB040;}
	.st33{fill:#FFDD47;}
	.st34{fill:#FB7440;}
	.st35{fill:#EF514C;}
	.st36{fill:#F55F6E;}
	.st37{fill:#EC4B6F;}
	.st38{fill:#EA4754;}
	.st39{fill:#D33B7A;}
	.st40{fill:#DD4073;}
	.st41{fill:#6B236B;}
	.st42{fill:#612770;}
	.st43{fill:#8C286B;}
	.st44{fill:none;stroke:#FFFFFF;stroke-width:5.25;stroke-linecap:round;stroke-linejoin:round;stroke-miterlimit:10;}
	.st45{fill:#FFFFFF;stroke:#000000;stroke-width:5.25;stroke-linecap:round;stroke-linejoin:round;stroke-miterlimit:10;}
	.st46{fill:none;stroke:#000000;stroke-width:6;stroke-linecap:round;stroke-miterlimit:10;}
</style>
<g>
	<polygon class="st0" points="244.9,101.8 244.9,101.8 118.7,0.5 118.7,0.5 	"/>
	<polygon class="st0" points="321.1,36.1 321.1,36.1 355.2,204.9 	"/>
	<polygon class="st0" points="154,157.9 118.8,0.9 146.7,125.5 0,208 0,208 146.7,125.5 	"/>
	<polygon class="st0" points="0,380.3 0,380.3 53.7,397.2 	"/>
	<polygon class="st0" points="255.2,177.7 255.1,177.7 220.5,315.2 101.1,392.3 220.5,315.2 	"/>
	<polygon class="st0" points="424.6,29.5 436.5,0 436.5,0 	"/>
	<polygon class="st0" points="120.6,0 118.2,0 118.7,0.5 	"/>
	<polygon class="st1" points="118.2,0 0,0 0,56.2 118.7,0.5 	"/>
	<polygon class="st2" points="462.3,0 436.4,0 424.6,29.5 	"/>
	<polygon class="st3" points="436.4,0 430.4,0 424.5,29.5 	"/>
	<polygon class="st4" points="430.4,0 398.8,0 424.5,29.5 	"/>
	<polygon class="st4" points="424.5,29.5 398.8,0 339.1,0 321.1,36.1 	"/>
	<polygon class="st5" points="339.1,0 309.3,0 321.1,36.1 	"/>
	<polygon class="st6" points="321.1,36.1 321.1,36.1 321.1,36.1 309.3,0 276.8,0 244.9,101.8 	"/>
	<polygon class="st7" points="244.9,101.8 244.9,101.8 276.8,0 120.6,0 118.7,0.5 	"/>
	<polygon class="st8" points="118.7,0.5 118.8,0.9 154,157.9 244.9,101.8 	"/>
	<polygon class="st9" points="0,56.2 0,178.2 118.7,0.5 	"/>
	<polygon class="st10" points="118.8,0.9 118.7,0.5 118.7,0.5 0,178.2 0,208 146.7,125.5 	"/>
	<polygon class="st11" points="146.7,125.5 0,208 0,214.3 154,157.9 	"/>
	<polygon class="st12" points="0,214.3 0,262.2 154,157.9 	"/>
	<polygon class="st13" points="154,157.9 0,262.2 0,304.6 101.1,392.3 	"/>
	<polygon class="st14" points="154,157.9 101.1,392.3 220.5,315.2 	"/>
	<polygon class="st15" points="255.1,177.7 154,157.9 220.5,315.2 	"/>
	<polygon class="st16" points="244.9,101.8 244.9,101.8 154,157.9 255.1,177.7 	"/>
	<polygon class="st17" points="255.1,177.7 255.2,177.7 255.2,177.7 355.2,204.9 244.9,101.8 	"/>
	<polygon class="st18" points="355.2,204.9 321.1,36.1 321.1,36.1 244.9,101.8 244.9,101.8 244.9,101.8 	"/>
	<polygon class="st19" points="424.5,29.5 355.2,204.9 512,177.2 512,101.5 	"/>
	<polygon class="st20" points="424.5,29.5 321.1,36.1 355.2,204.9 	"/>
	<polygon class="st21" points="424.5,29.5 512,6.6 512,0 462.3,0 424.6,29.5 	"/>
	<polygon class="st22" points="424.5,29.5 512,101.5 512,6.6 	"/>
	<polygon class="st23" points="439.7,382.7 512,275.8 512,177.2 355.2,204.9 	"/>
	<polygon class="st24" points="258.8,300.3 439.7,382.7 355.2,204.9 	"/>
	<polygon class="st25" points="258.8,300.3 355.2,204.9 255.2,177.7 	"/>
	<polygon class="st26" points="255.2,177.7 255.2,177.7 220.5,315.2 258.8,300.3 	"/>
	<polygon class="st27" points="220.5,315.2 280,436.1 258.8,300.3 	"/>
	<polygon class="st28" points="280,436.1 439.7,382.7 258.8,300.3 	"/>
	<polygon class="st29" points="280,436.1 313.4,512 349.2,512 439.7,382.7 	"/>
	<polygon class="st30" points="439.7,382.7 349.2,512 432.5,512 	"/>
	<polygon class="st31" points="432.5,512 486.3,512 512,489.4 512,455.6 439.7,382.7 	"/>
	<polygon class="st32" points="512,455.6 512,385.5 439.7,382.7 	"/>
	<polygon class="st33" points="512,385.5 512,275.8 439.7,382.7 	"/>
	<polygon class="st34" points="512,512 512,489.4 486.3,512 	"/>
	<polygon class="st35" points="264.8,512 313.4,512 280,436.1 	"/>
	<polygon class="st36" points="101.1,392.3 280,436.1 220.5,315.2 	"/>
	<polygon class="st37" points="101.1,392.3 168.5,512 201,512 280,436.1 	"/>
	<polygon class="st38" points="201,512 264.8,512 280,436.1 	"/>
	<polygon class="st39" points="0,485.1 0,512 160.9,512 53.7,397.2 	"/>
	<polygon class="st40" points="53.7,397.2 160.9,512 168.5,512 101.1,392.3 	"/>
	<polygon class="st41" points="101.1,392.3 0,304.6 0,320.1 53.7,397.2 	"/>
	<polygon class="st42" points="0,320.1 0,380.3 53.7,397.2 	"/>
	<polygon class="st43" points="0,380.3 0,485.1 53.7,397.2 	"/>
</g>
<g>
	<g id="layer1_00000092418532499058005660000010785271004094054045_" transform="translate(-36.380379,-256.78621)">
		<path id="path817-3_00000016783017030312699050000005188398321492582052_" class="st44" d="M136.8,377.8c-0.5,0-0.8,0-1.3,0
			c-2,0-3.9,0.1-5.8,0.4c-15.3,1.8-29,9.9-37.4,24.1c-8.2,13.9-10.3,29.2-6.1,43.3c4.2,14.1,14.4,27,29.5,37.2
			c0.1,0,0.2,0.1,0.2,0.1c12.9,7.7,25.8,13,39.6,15.7c-0.4,5.8-0.4,11.5,0,17.5c1.1,18.1,7.5,34.7,17.1,49.5l-34.5,14.3
			c-3.8,1.4-5.6,5.8-4,9.4c1.5,3.8,5.8,5.5,9.5,3.9l38.3-15.6c7,8.5,15.3,16.1,23.9,22.8c0.4,0.2,0.7,0.5,1.1,0.8l-22.4,29.6
			c-2.5,3.2-1.9,7.7,1.4,10.2c3.2,2.5,7.7,1.8,10.2-1.5l22.8-30.1c12.4,7.9,25.7,14.1,38.9,18.2c6.7,12.3,19.8,20.2,35,20.2
			c15.3,0,28.4-8.5,35.1-20.5c12.9-4.1,26.1-10.3,38.4-18.2l23,30.5c2.3,3.3,6.9,3.9,10.2,1.5c3.3-2.3,3.8-7,1.4-10.2L378,600.8
			c0.1-0.1,0.4-0.2,0.5-0.4c8.7-6.6,16.7-14.1,23.8-22.4l37.2,15.3c3.8,1.5,8-0.2,9.5-3.9c1.5-3.8-0.4-8-4.1-9.4l-33.7-13.7
			c10-14.8,16.7-31.6,18.1-49.9c0.5-6,0.6-11.9,0.2-17.6c13.7-2.7,26.5-8,39.3-15.7c0.1,0,0.2-0.1,0.2-0.1
			c15.1-10.2,25.2-23,29.5-37.2c4.2-14.2,2.2-29.5-6.1-43.3c-8.5-14.2-22.2-22.3-37.4-24.1c-1.9-0.2-3.9-0.4-5.8-0.4
			c-13.6-0.2-28.2,4-42.1,12.1c-10.3,6-19.6,15-26.9,24.9c-20.3-11.6-46.7-18.2-79.2-18.7c-2.9,0-5.9,0-8.9,0
			c-36.2,0.6-65.2,7.4-87.1,19.8c-0.1-0.1-0.1-0.1-0.1-0.2c-7.4-10.3-16.9-19.7-27.5-25.8C164,382,150,377.8,136.8,377.8
			L136.8,377.8z"/>
		<path id="path1087_00000132810757152909905230000000992923811777627269_" class="st45" d="M384.8,419.3c6.9-9.6,16-18.5,25.5-24.1
			c30.1-17.4,61.9-15,76.8,10.1c14.9,25.1,6.8,52.9-21.5,72.1c-14.4,8.7-28.4,14-43.9,16.1 M199.9,419.3c-6.9-9.6-16-18.5-25.5-24.1
			c-30.1-17.4-61.9-15-76.8,10.1c-14.9,25.1-6.8,52.9,21.5,72.1c14.4,8.7,28.4,14,43.9,16.1"/>
		<path id="path969_00000026149126356666619380000005201206681269014717_" class="st45" d="M423,515.8
			c5.2-67.6-36.4-115-130.5-113.4s-134.6,46.3-130.5,113.4C165.8,579.9,241.7,627,292,627S418,579.8,423,515.8z"/>
		<path id="path1084_00000059302391024560720460000014722008476341810870_" d="M336.8,546.2c0,10.4,8.5,18.9,18.9,18.9
			s18.9-8.5,18.9-18.9c0-10.4-8.5-18.9-18.9-18.9S336.8,535.8,336.8,546.2z M210.3,546.2c0,10.6,8.6,19,19,19s19-8.6,19-19
			c0-10.6-8.6-19-19-19S210.3,535.8,210.3,546.2z"/>
		<path id="path1008_00000029036177936675273680000011696966013774514822_" class="st46" d="M214.6,602.6l-24.7,32.6 M370.1,602.6
			l24.7,32.6 M180.3,570.4l-39.6,16.2 M402.4,570.4l39.6,16.2"/>
		<path id="path1115_00000034811848344641319500000015673934847231637895_" class="st45" d="M292.4,577.4c-20.7,0-33.9,14.3-33.5,32
			c0.5,19.1,14.7,32,33.5,32c18.8,0,33.5-14.9,33.5-32C325.9,591.7,313.1,577.4,292.4,577.4z"/>
	</g>
</g>
</svg>
