<svg xmlns="http://www.w3.org/2000/svg" xml:space="preserve" id="Layer_1" x="0" y="0" style="enable-background:new 0 0 512 512" version="1.1" viewBox="0 0 512 512"><style>.st0{fill:none}.st4{fill:#86c054}.st45{fill:#fff;stroke:#000;stroke-width:5.25;stroke-linecap:round;stroke-linejoin:round;stroke-miterlimit:10}</style><path d="M244.9 101.8 118.7.5zM321.1 36.1l34.1 168.8zM154 157.9 118.8.9l27.9 124.6L0 208l146.7-82.5zM0 380.3l53.7 16.9zM255.2 177.7h-.1l-34.6 137.5-119.4 77.1 119.4-77.1zM424.6 29.5 436.5 0zM120.6 0h-2.4l.5.5z" class="st0"/><path d="M118.2 0H0v56.2L118.7.5z" style="fill:#2b5198"/><path d="M462.3 0h-25.9l-11.8 29.5z" style="fill:#9eba3c"/><path d="M436.4 0h-6l-5.9 29.5z" style="fill:#9dc247"/><path d="M430.4 0h-31.6l25.7 29.5z" class="st4"/><path d="M424.5 29.5 398.8 0h-59.7l-18 36.1z" class="st4"/><path d="M339.1 0h-29.8l11.8 36.1z" style="fill:#6ab76e"/><path d="M321.1 36.1 309.3 0h-32.5l-31.9 101.8z" style="fill:#61b47b"/><path d="M244.9 101.8 276.8 0H120.6l-1.9.5z" style="fill:#469b9b"/><path d="m118.7.5.1.4 35.2 157 90.9-56.1z" style="fill:#4189a9"/><path d="M0 56.2v122L118.7.5z" style="fill:#334890"/><path d="m118.8.9-.1-.4L0 178.2V208l146.7-82.5z" style="fill:#3860aa"/><path d="M146.7 125.5 0 208v6.3l154-56.4z" style="fill:#3e5aa4"/><path d="M0 214.3v47.9l154-104.3z" style="fill:#484494"/><path d="M154 157.9 0 262.2v42.4l101.1 87.7z" style="fill:#53398c"/><path d="m154 157.9-52.9 234.4 119.4-77.1z" style="fill:#a95b7b"/><path d="M255.1 177.7 154 157.9l66.5 157.3z" style="fill:#8a8967"/><path d="M244.9 101.8 154 157.9l101.1 19.8z" style="fill:#509587"/><path d="M255.1 177.7h.1l100 27.2-110.3-103.1z" style="fill:#c3c83c"/><path d="M355.2 204.9 321.1 36.1l-76.2 65.7z" style="fill:#aad35e"/><path d="m424.5 29.5-69.3 175.4L512 177.2v-75.7z" style="fill:#faed4b"/><path d="m424.5 29.5-103.4 6.6 34.1 168.8z" style="fill:#b1c83c"/><path d="M424.5 29.5 512 6.6V0h-49.7l-37.7 29.5z" style="fill:#a6a92e"/><path d="m424.5 29.5 87.5 72V6.6z" style="fill:#f8e644"/><path d="M439.7 382.7 512 275.8v-98.6l-156.8 27.7z" style="fill:#fde145"/><path d="m258.8 300.3 180.9 82.4-84.5-177.8z" style="fill:#fbd44a"/><path d="m258.8 300.3 96.4-95.4-100-27.2z" style="fill:#fad247"/><path d="m255.2 177.7-34.7 137.5 38.3-14.9z" style="fill:#f8b456"/><path d="M220.5 315.2 280 436.1l-21.2-135.8z" style="fill:#f7804f"/><path d="m280 436.1 159.7-53.4-180.9-82.4z" style="fill:#fd9b45"/><path d="m280 436.1 33.4 75.9h35.8l90.5-129.3z" style="fill:#fa7b45"/><path d="M439.7 382.7 349.2 512h83.3z" style="fill:#fc7f4d"/><path d="M432.5 512h53.8l25.7-22.6v-33.8l-72.3-72.9z" style="fill:#fe9a42"/><path d="M512 455.6v-70.1l-72.3-2.8z" style="fill:#feb040"/><path d="M512 385.5V275.8l-72.3 106.9z" style="fill:#ffdd47"/><path d="M512 512v-22.6L486.3 512z" style="fill:#fb7440"/><path d="M264.8 512h48.6L280 436.1z" style="fill:#ef514c"/><path d="M101.1 392.3 280 436.1l-59.5-120.9z" style="fill:#f55f6e"/><path d="M101.1 392.3 168.5 512H201l79-75.9z" style="fill:#ec4b6f"/><path d="M201 512h63.8l15.2-75.9z" style="fill:#ea4754"/><path d="M0 485.1V512h160.9L53.7 397.2z" style="fill:#d33b7a"/><path d="M53.7 397.2 160.9 512h7.6l-67.4-119.7z" style="fill:#dd4073"/><path d="M101.1 392.3 0 304.6v15.5l53.7 77.1z" style="fill:#6b236b"/><path d="M0 320.1v60.2l53.7 16.9z" style="fill:#612770"/><path d="M0 380.3v104.8l53.7-87.9z" style="fill:#8c286b"/><g id="layer1_00000092418532499058005660000010785271004094054045_" transform="translate(-36.380379 -256.78621)"><path id="path817-3_00000016783017030312699050000005188398321492582052_" d="M159.8 397.8h-1.1c-1.7 0-3.3.1-4.9.3-13 1.5-24.7 8.4-31.9 20.5-7 11.8-8.8 24.9-5.2 36.9s12.3 23 25.1 31.7c.1 0 .2.1.2.1 11 6.6 22 11.1 33.7 13.4-.3 4.9-.3 9.8 0 14.9.9 15.4 6.4 29.6 14.6 42.2L160.9 570c-3.2 1.2-4.8 4.9-3.4 8 1.3 3.2 4.9 4.7 8.1 3.3l32.6-13.3c6 7.2 13 13.7 20.4 19.4.3.2.6.4.9.7l-19.1 25.2c-2.1 2.7-1.6 6.6 1.2 8.7 2.7 2.1 6.6 1.5 8.7-1.3l19.4-25.6c10.6 6.7 21.9 12 33.1 15.5 5.7 10.5 16.9 17.2 29.8 17.2 13 0 24.2-7.2 29.9-17.5 11-3.5 22.2-8.8 32.7-15.5l19.6 26c2 2.8 5.9 3.3 8.7 1.3s3.2-6 1.2-8.7l-19.4-25.6c.1-.1.3-.2.4-.3 7.4-5.6 14.2-12 20.3-19.1l31.7 13c3.2 1.3 6.8-.2 8.1-3.3 1.3-3.2-.3-6.8-3.5-8l-28.7-11.7c8.5-12.6 14.2-26.9 15.4-42.5.4-5.1.5-10.1.2-15 11.7-2.3 22.6-6.8 33.5-13.4.1 0 .2-.1.2-.1 12.9-8.7 21.5-19.6 25.1-31.7 3.6-12.1 1.9-25.1-5.2-36.9-7.2-12.1-18.9-19-31.9-20.5-1.6-.2-3.3-.3-4.9-.3-11.6-.2-24 3.4-35.9 10.3-8.8 5.1-16.7 12.8-22.9 21.2-17.3-9.9-39.8-15.5-67.5-15.9h-7.6c-30.8.5-55.5 6.3-74.2 16.9-.1-.1-.1-.1-.1-.2-6.3-8.8-14.4-16.8-23.4-22-11.4-6.9-23.3-10.5-34.6-10.5h0z" style="fill:none;stroke:#fff;stroke-width:5.25;stroke-linecap:round;stroke-linejoin:round;stroke-miterlimit:10"/><path id="path1087_00000132810757152909905230000000992923811777627269_" d="M371.1 433.2c5.9-8.2 13.6-15.8 21.7-20.5 25.6-14.8 52.7-12.8 65.4 8.6 12.7 21.4 5.8 45.1-18.3 61.4-12.3 7.4-24.2 11.9-37.4 13.7m-188.9-63.2c-5.9-8.2-13.6-15.8-21.7-20.5-25.6-14.8-52.7-12.8-65.4 8.6-12.7 21.4-5.8 45.1 18.3 61.4 12.3 7.4 24.2 11.9 37.4 13.7" class="st45"/><path id="path969_00000026149126356666619380000005201206681269014717_" d="M403.6 515.4c4.4-57.6-31-98-111.2-96.6s-114.7 39.4-111.2 96.6c3.3 54.6 68 94.7 110.8 94.7s107.4-40.2 111.6-94.7z" class="st45"/><path id="path1084_00000059302391024560720460000014722008476341810870_" d="M330.2 541.3c0 8.9 7.2 16.1 16.1 16.1s16.1-7.2 16.1-16.1-7.2-16.1-16.1-16.1-16.1 7.2-16.1 16.1zm-107.8 0c0 9 7.3 16.2 16.2 16.2s16.2-7.3 16.2-16.2c0-9-7.3-16.2-16.2-16.2s-16.2 7.3-16.2 16.2z"/><path id="path1008_00000029036177936675273680000011696966013774514822_" d="m226.1 589.3-21 27.8m153.5-27.8 21 27.8m-182.7-55.2-33.7 13.8m222.9-13.8 33.7 13.8" style="fill:none;stroke:#000;stroke-width:6;stroke-linecap:round;stroke-miterlimit:10"/><path id="path1115_00000034811848344641319500000015673934847231637895_" d="M292.4 567.8c-17.6 0-28.9 12.2-28.5 27.3.4 16.3 12.5 27.3 28.5 27.3s28.5-12.7 28.5-27.3c0-15.1-10.9-27.3-28.5-27.3z" class="st45"/></g></svg>