<svg xmlns="http://www.w3.org/2000/svg" xmlns:xlink="http://www.w3.org/1999/xlink" xml:space="preserve" id="Layer_1" x="0" y="0" style="enable-background:new 0 0 512 512" version="1.1" viewBox="0 0 512 512"><style>.st62{fill:#fff;stroke:#000;stroke-width:5.25;stroke-linecap:round;stroke-linejoin:round;stroke-miterlimit:10}</style><g id="Layer_1_00000044884552772027738920000004656105546809904525_"><defs><path id="SVGID_1_" d="M0 0h512v512H0z"/></defs><clipPath id="SVGID_00000065778685596222188760000018209442538631216049_"><use xlink:href="#SVGID_1_" style="overflow:visible"/></clipPath><path d="M0 113.6V0h38.5l88.7 68.8L0 113.6z" style="clip-path:url(#SVGID_00000065778685596222188760000018209442538631216049_);fill:#2b5198"/><defs><path id="SVGID_00000100350093529111872330000016710344742806044556_" d="M0 0h512v512H0z"/></defs><clipPath id="SVGID_00000167380948846718979730000002953123002220748955_"><use xlink:href="#SVGID_00000100350093529111872330000016710344742806044556_" style="overflow:visible"/></clipPath><path d="M38.5 0h59.7l29 68.8L38.5 0z" style="clip-path:url(#SVGID_00000167380948846718979730000002953123002220748955_);fill:#356fb1"/><defs><path id="SVGID_00000166664385565941611320000006431050958103743380_" d="M0 0h512v512H0z"/></defs><clipPath id="SVGID_00000140007613377956569080000003955756937611960737_"><use xlink:href="#SVGID_00000166664385565941611320000006431050958103743380_" style="overflow:visible"/></clipPath><path d="M127.2 68.8 98.2 0H170l-42.8 68.8z" style="clip-path:url(#SVGID_00000140007613377956569080000003955756937611960737_);fill:#377daf"/><defs><path id="SVGID_00000093155178035581075660000011700118832283620758_" d="M0 0h512v512H0z"/></defs><clipPath id="SVGID_00000047755572118904371140000004980467809522818944_"><use xlink:href="#SVGID_00000093155178035581075660000011700118832283620758_" style="overflow:visible"/></clipPath><path d="M127.2 68.8 170 0h29.1l93.1 32.4-165 36.4z" style="clip-path:url(#SVGID_00000047755572118904371140000004980467809522818944_);fill:#4496ab"/><defs><path id="SVGID_00000149375436825525379340000001328536003264195235_" d="M0 0h512v512H0z"/></defs><clipPath id="SVGID_00000088844843699463620160000002330582693807049148_"><use xlink:href="#SVGID_00000149375436825525379340000001328536003264195235_" style="overflow:visible"/></clipPath><path d="M292.1 32.4 199.1 0h102.1l-9.1 32.4z" style="clip-path:url(#SVGID_00000088844843699463620160000002330582693807049148_);fill:#449688"/><defs><path id="SVGID_00000077319667841847517440000000853527841383141799_" d="M0 0h512v512H0z"/></defs><clipPath id="SVGID_00000030477902756510734590000004259176410126178447_"><use xlink:href="#SVGID_00000077319667841847517440000000853527841383141799_" style="overflow:visible"/></clipPath><path d="M292.1 32.4 301.2 0H334l22.8 37.5-64.7-5.1z" style="clip-path:url(#SVGID_00000030477902756510734590000004259176410126178447_);fill:#4ea06b"/><defs><path id="SVGID_00000049922414740158146040000002933446901083389370_" d="M0 0h512v512H0z"/></defs><clipPath id="SVGID_00000131333161885135241960000008043312617001125805_"><use xlink:href="#SVGID_00000049922414740158146040000002933446901083389370_" style="overflow:visible"/></clipPath><path d="M356.8 37.5 334 0h74.9l-52.1 37.5z" style="clip-path:url(#SVGID_00000131333161885135241960000008043312617001125805_);fill:#54a673"/><defs><path id="SVGID_00000066502166819216598300000012812602715588652931_" d="M0 0h512v512H0z"/></defs><clipPath id="SVGID_00000091726329836903098260000013352083369356397462_"><use xlink:href="#SVGID_00000066502166819216598300000012812602715588652931_" style="overflow:visible"/></clipPath><path d="M356.8 37.5 408.9 0h11l32.4 24.2-95.5 13.3z" style="clip-path:url(#SVGID_00000091726329836903098260000013352083369356397462_);fill:#7db44d"/><defs><path id="SVGID_00000072976080405168922610000009249135382632482451_" d="M0 0h512v512H0z"/></defs><clipPath id="SVGID_00000131344446618940018190000017521563841835838896_"><use xlink:href="#SVGID_00000072976080405168922610000009249135382632482451_" style="overflow:visible"/></clipPath><path d="M452.2 24.3 419.9 0h42.4l-10.1 24.3z" style="clip-path:url(#SVGID_00000131344446618940018190000017521563841835838896_);fill:#7db44d"/><defs><path id="SVGID_00000177463096232153550800000009135033123935048102_" d="M0 0h512v512H0z"/></defs><clipPath id="SVGID_00000077318487671307945140000008471818866932723337_"><use xlink:href="#SVGID_00000177463096232153550800000009135033123935048102_" style="overflow:visible"/></clipPath><path d="m512 16-59.8 8.2 10-24.3H512V16z" style="clip-path:url(#SVGID_00000077318487671307945140000008471818866932723337_);fill:#96ba42"/><defs><path id="SVGID_00000045587388932418709430000011891813780049425075_" d="M0 0h512v512H0z"/></defs><clipPath id="SVGID_00000165943193310364975240000003757108417936326539_"><use xlink:href="#SVGID_00000045587388932418709430000011891813780049425075_" style="overflow:visible"/></clipPath><path d="m512 33.9-94.8 55.5 35-65.2L512 16v17.9z" style="clip-path:url(#SVGID_00000165943193310364975240000003757108417936326539_);fill:#9eba3c"/><defs><path id="SVGID_00000124162128863829019900000004460924768958868134_" d="M0 0h512v512H0z"/></defs><clipPath id="SVGID_00000152971605855820964580000002053530863718568626_"><use xlink:href="#SVGID_00000124162128863829019900000004460924768958868134_" style="overflow:visible"/></clipPath><path d="m452.2 24.3-22.6 18-12.4 47.2 35-65.2z" style="clip-path:url(#SVGID_00000152971605855820964580000002053530863718568626_);fill:#9dc247"/><defs><path id="SVGID_00000029765737113060629310000008727519701453509040_" d="M0 0h512v512H0z"/></defs><clipPath id="SVGID_00000093861179532281684430000012158433862721971351_"><use xlink:href="#SVGID_00000029765737113060629310000008727519701453509040_" style="overflow:visible"/></clipPath><path d="m452.2 24.3-22.6 18-72.8-4.7 95.4-13.3z" style="clip-path:url(#SVGID_00000093861179532281684430000012158433862721971351_);fill:#88bb4d"/><defs><path id="SVGID_00000129181224355963417970000015650348450525573263_" d="M0 0h512v512H0z"/></defs><clipPath id="SVGID_00000122704015338434290330000010008158623337019327_"><use xlink:href="#SVGID_00000129181224355963417970000015650348450525573263_" style="overflow:visible"/></clipPath><path d="m417.2 89.4 12.4-47.2-72.8-4.7 60.4 51.9z" style="clip-path:url(#SVGID_00000122704015338434290330000010008158623337019327_);fill:#86c054"/><defs><path id="SVGID_00000028318717761859827490000014753225474735495296_" d="M0 0h512v512H0z"/></defs><clipPath id="SVGID_00000040536617070766513550000016444570741146868882_"><use xlink:href="#SVGID_00000028318717761859827490000014753225474735495296_" style="overflow:visible"/></clipPath><path d="m417.2 89.4-98.1 4.7 37.7-56.6 60.4 51.9z" style="clip-path:url(#SVGID_00000040536617070766513550000016444570741146868882_);fill:#86c054"/><defs><path id="SVGID_00000050637328281777404530000006375584632356708785_" d="M0 0h512v512H0z"/></defs><clipPath id="SVGID_00000064322177771561114110000010021563317149482164_"><use xlink:href="#SVGID_00000050637328281777404530000006375584632356708785_" style="overflow:visible"/></clipPath><path d="m292.1 32.4 27 61.7 37.7-56.6-64.7-5.1z" style="clip-path:url(#SVGID_00000064322177771561114110000010021563317149482164_);fill:#6ab76e"/><defs><path id="SVGID_00000087383249541241073400000008610053070997319341_" d="M0 0h512v512H0z"/></defs><clipPath id="SVGID_00000072966585331798438220000017279656356604384410_"><use xlink:href="#SVGID_00000087383249541241073400000008610053070997319341_" style="overflow:visible"/></clipPath><path d="m292.1 32.4 27 61.7-72.2 46.7 45.2-108.4z" style="clip-path:url(#SVGID_00000072966585331798438220000017279656356604384410_);fill:#61b47b"/><defs><path id="SVGID_00000029027450433862404400000006171665447649285561_" d="M0 0h512v512H0z"/></defs><clipPath id="SVGID_00000013157064876178126230000006316800934391708072_"><use xlink:href="#SVGID_00000029027450433862404400000006171665447649285561_" style="overflow:visible"/></clipPath><path d="M292.1 32.4 127.2 68.8l119.7 72 45.2-108.4z" style="clip-path:url(#SVGID_00000013157064876178126230000006316800934391708072_);fill:#469b9b"/><defs><path id="SVGID_00000169555795384239385070000011351062171003214497_" d="M0 0h512v512H0z"/></defs><clipPath id="SVGID_00000042728262677192652800000015308176436770083234_"><use xlink:href="#SVGID_00000169555795384239385070000011351062171003214497_" style="overflow:visible"/></clipPath><path d="M160.6 180.7 127.2 68.8l119.7 72-86.3 39.9z" style="clip-path:url(#SVGID_00000042728262677192652800000015308176436770083234_);fill:#4189a9"/><defs><path id="SVGID_00000115515181531544313540000018322945550987581067_" d="M0 0h512v512H0z"/></defs><clipPath id="SVGID_00000136390697712344738430000005829667558272592305_"><use xlink:href="#SVGID_00000115515181531544313540000018322945550987581067_" style="overflow:visible"/></clipPath><path d="M0 211.5v-98l127.2-44.7L0 211.5z" style="clip-path:url(#SVGID_00000136390697712344738430000005829667558272592305_);fill:#334890"/><defs><path id="SVGID_00000023995966843562744370000011152693014815037577_" d="M0 0h512v512H0z"/></defs><clipPath id="SVGID_00000031179238241428785500000000953204440960648088_"><use xlink:href="#SVGID_00000023995966843562744370000011152693014815037577_" style="overflow:visible"/></clipPath><path d="M0 222.5v-11L127.2 68.8l26.5 88.9L0 222.5z" style="clip-path:url(#SVGID_00000031179238241428785500000000953204440960648088_);fill:#3860aa"/><defs><path id="SVGID_00000045601597119703035110000000156478745256146341_" d="M0 0h512v512H0z"/></defs><clipPath id="SVGID_00000143579877109442310840000006970995447345748872_"><use xlink:href="#SVGID_00000045601597119703035110000000156478745256146341_" style="overflow:visible"/></clipPath><path d="M0 224.8v-2.3l153.7-64.8 6.9 23L0 224.8z" style="clip-path:url(#SVGID_00000143579877109442310840000006970995447345748872_);fill:#3e5aa4"/><defs><path id="SVGID_00000073000146291380156470000015022840054033482650_" d="M0 0h512v512H0z"/></defs><clipPath id="SVGID_00000119084725231364810550000018412808988905369013_"><use xlink:href="#SVGID_00000073000146291380156470000015022840054033482650_" style="overflow:visible"/></clipPath><path d="M0 262.4v-37.5l160.6-44.1L0 262.4z" style="clip-path:url(#SVGID_00000119084725231364810550000018412808988905369013_);fill:#484494"/><defs><path id="SVGID_00000016034756439283781050000006944996442933879436_" d="M0 0h512v512H0z"/></defs><clipPath id="SVGID_00000107579397015011969170000003381999828815154331_"><use xlink:href="#SVGID_00000016034756439283781050000006944996442933879436_" style="overflow:visible"/></clipPath><path d="M110.5 347.4 0 275.5v-13.2l160.6-81.7-50.1 166.8z" style="clip-path:url(#SVGID_00000107579397015011969170000003381999828815154331_);fill:#53398c"/><defs><path id="SVGID_00000057115303219550944400000014147450660657880737_" d="M0 0h512v512H0z"/></defs><clipPath id="SVGID_00000165207067858840565020000006210016059109415565_"><use xlink:href="#SVGID_00000057115303219550944400000014147450660657880737_" style="overflow:visible"/></clipPath><path d="m160.6 180.7 63.1 111.9-113.2 54.9 50.1-166.8z" style="clip-path:url(#SVGID_00000165207067858840565020000006210016059109415565_);fill:#a95b7b"/><defs><path id="SVGID_00000083773893723550207760000007506388035628290723_" d="M0 0h512v512H0z"/></defs><clipPath id="SVGID_00000023262197041707024570000016128213509476371852_"><use xlink:href="#SVGID_00000083773893723550207760000007506388035628290723_" style="overflow:visible"/></clipPath><path d="m160.6 180.7 63.1 111.9 32.9-97.7-96-14.2z" style="clip-path:url(#SVGID_00000023262197041707024570000016128213509476371852_);fill:#8a8967"/><defs><path id="SVGID_00000057120387462097837270000007727141668593410709_" d="M0 0h512v512H0z"/></defs><clipPath id="SVGID_00000010295350781073004540000004636675103754732710_"><use xlink:href="#SVGID_00000057120387462097837270000007727141668593410709_" style="overflow:visible"/></clipPath><path d="m160.6 180.7 86.2-39.9 9.7 54-95.9-14.1z" style="clip-path:url(#SVGID_00000010295350781073004540000004636675103754732710_);fill:#509587"/><defs><path id="SVGID_00000093149785815895145460000011963858742203377835_" d="M0 0h512v512H0z"/></defs><clipPath id="SVGID_00000162349620493496932900000006822147599449045148_"><use xlink:href="#SVGID_00000093149785815895145460000011963858742203377835_" style="overflow:visible"/></clipPath><path d="m351.4 214.1-104.6-73.3 9.7 54 94.9 19.3z" style="clip-path:url(#SVGID_00000162349620493496932900000006822147599449045148_);fill:#c3c83c"/><defs><path id="SVGID_00000074408694956018832540000007420174793441931181_" d="M0 0h512v512H0z"/></defs><clipPath id="SVGID_00000036948803653018667020000001504648774054368900_"><use xlink:href="#SVGID_00000074408694956018832540000007420174793441931181_" style="overflow:visible"/></clipPath><path d="m351.4 214.1-104.6-73.3L319 94.1l32.4 120z" style="clip-path:url(#SVGID_00000036948803653018667020000001504648774054368900_);fill:#aad35e"/><defs><path id="SVGID_00000139288829297784589850000011334798988621442228_" d="M0 0h512v512H0z"/></defs><clipPath id="SVGID_00000131327661244433972940000004822946770709833869_"><use xlink:href="#SVGID_00000139288829297784589850000011334798988621442228_" style="overflow:visible"/></clipPath><path d="m512 192.9-160.6 21.2 65.8-124.7L512 148v44.9z" style="clip-path:url(#SVGID_00000131327661244433972940000004822946770709833869_);fill:#faed4b"/><defs><path id="SVGID_00000060027627653644834150000000031492873522189979_" d="M0 0h512v512H0z"/></defs><clipPath id="SVGID_00000021818153869819076520000016238616132219582364_"><use xlink:href="#SVGID_00000060027627653644834150000000031492873522189979_" style="overflow:visible"/></clipPath><path d="m351.4 214.1 65.8-124.7-98.1 4.7 32.3 120z" style="clip-path:url(#SVGID_00000021818153869819076520000016238616132219582364_);fill:#b1c83c"/><defs><path id="SVGID_00000049223203167686508890000005276850910714463872_" d="M0 0h512v512H0z"/></defs><clipPath id="SVGID_00000181777542400014647070000009919880268510376098_"><use xlink:href="#SVGID_00000049223203167686508890000005276850910714463872_" style="overflow:visible"/></clipPath><path d="m512 70.8-94.8 18.6L512 33.9v36.9z" style="clip-path:url(#SVGID_00000181777542400014647070000009919880268510376098_);fill:#a6a92e"/><defs><path id="SVGID_00000170245235057455818910000013394433082867179433_" d="M0 0h512v512H0z"/></defs><clipPath id="SVGID_00000006709503691237022990000016996381013383749280_"><use xlink:href="#SVGID_00000170245235057455818910000013394433082867179433_" style="overflow:visible"/></clipPath><path d="m512 148-94.8-58.6L512 70.8V148z" style="clip-path:url(#SVGID_00000006709503691237022990000016996381013383749280_);fill:#f8e644"/><defs><path id="SVGID_00000168076008628106773370000014855521965159178407_" d="M0 0h512v512H0z"/></defs><clipPath id="SVGID_00000032610052798774322760000016425772837221019052_"><use xlink:href="#SVGID_00000168076008628106773370000014855521965159178407_" style="overflow:visible"/></clipPath><path d="m512 251.4-80.5 89.2-80.1-126.4L512 192.9v58.5z" style="clip-path:url(#SVGID_00000032610052798774322760000016425772837221019052_);fill:#fde145"/><defs><path id="SVGID_00000080905093242379851920000005097987288126906283_" d="M0 0h512v512H0z"/></defs><clipPath id="SVGID_00000118376438082689521450000003771798298356145045_"><use xlink:href="#SVGID_00000080905093242379851920000005097987288126906283_" style="overflow:visible"/></clipPath><path d="m351.4 214.1 80.1 126.5L260 282l91.4-67.9z" style="clip-path:url(#SVGID_00000118376438082689521450000003771798298356145045_);fill:#fbd44a"/><defs><path id="SVGID_00000053529921530763538620000007476782350490537897_" d="M0 0h512v512H0z"/></defs><clipPath id="SVGID_00000183966430457122426910000003535112975891566259_"><use xlink:href="#SVGID_00000053529921530763538620000007476782350490537897_" style="overflow:visible"/></clipPath><path d="m351.4 214.1-94.9-19.3L260 282l91.4-67.9z" style="clip-path:url(#SVGID_00000183966430457122426910000003535112975891566259_);fill:#fad247"/><defs><path id="SVGID_00000036239802477206804510000016910010923604844963_" d="M0 0h512v512H0z"/></defs><clipPath id="SVGID_00000046309719942369616440000010902722264596514970_"><use xlink:href="#SVGID_00000036239802477206804510000016910010923604844963_" style="overflow:visible"/></clipPath><path d="m223.7 292.6 32.9-97.7L260 282l-36.3 10.6z" style="clip-path:url(#SVGID_00000046309719942369616440000010902722264596514970_);fill:#f8b456"/><defs><path id="SVGID_00000106869192943183172250000013961602629093046450_" d="M0 0h512v512H0z"/></defs><clipPath id="SVGID_00000177454114557465187820000013220777747001426328_"><use xlink:href="#SVGID_00000106869192943183172250000013961602629093046450_" style="overflow:visible"/></clipPath><path d="m223.7 292.6 56.4 86L260 282l-36.3 10.6z" style="clip-path:url(#SVGID_00000177454114557465187820000013220777747001426328_);fill:#f7804f"/><defs><path id="SVGID_00000016784767725680322030000006345194727031738557_" d="M0 0h512v512H0z"/></defs><clipPath id="SVGID_00000010304919535004310770000016924976019564929981_"><use xlink:href="#SVGID_00000016784767725680322030000006345194727031738557_" style="overflow:visible"/></clipPath><path d="m280 378.5 151.5-38L260 282l20 96.5z" style="clip-path:url(#SVGID_00000010304919535004310770000016924976019564929981_);fill:#fd9b45"/><defs><path id="SVGID_00000000904145356071387240000010417877855863680930_" d="M0 0h512v512H0z"/></defs><clipPath id="SVGID_00000010269905455700155730000002974930371101573546_"><use xlink:href="#SVGID_00000000904145356071387240000010417877855863680930_" style="overflow:visible"/></clipPath><path d="m280 378.5 151.5-38-106.7 114.4-44.8-76.4z" style="clip-path:url(#SVGID_00000010269905455700155730000002974930371101573546_);fill:#fa7b45"/><defs><path id="SVGID_00000112601865062580640330000002328409662114880900_" d="M0 0h512v512H0z"/></defs><clipPath id="SVGID_00000146475673813221464320000012288355606366628026_"><use xlink:href="#SVGID_00000112601865062580640330000002328409662114880900_" style="overflow:visible"/></clipPath><path d="m422.1 468 9.4-127.5-106.7 114.4 97.3 13.1z" style="clip-path:url(#SVGID_00000146475673813221464320000012288355606366628026_);fill:#fc7f4d"/><defs><path id="SVGID_00000172424470401990709860000014213456742062453942_" d="M0 0h512v512H0z"/></defs><clipPath id="SVGID_00000008866398311869194340000001386505774921975713_"><use xlink:href="#SVGID_00000172424470401990709860000014213456742062453942_" style="overflow:visible"/></clipPath><path d="M512 408.5 422.1 468l9.4-127.5 80.5 60.9v7.1z" style="clip-path:url(#SVGID_00000008866398311869194340000001386505774921975713_);fill:#fe9a42"/><defs><path id="SVGID_00000136375605190008252900000000033470711661975477_" d="M0 0h512v512H0z"/></defs><clipPath id="SVGID_00000022549380570845903330000015349122189710156458_"><use xlink:href="#SVGID_00000136375605190008252900000000033470711661975477_" style="overflow:visible"/></clipPath><path d="m512 401.5-80.5-60.9 80.5 2.3v58.6z" style="clip-path:url(#SVGID_00000022549380570845903330000015349122189710156458_);fill:#feb040"/><defs><path id="SVGID_00000168802828187617615270000006001456726662666424_" d="M0 0h512v512H0z"/></defs><clipPath id="SVGID_00000085949748015264359580000010592887918730363056_"><use xlink:href="#SVGID_00000168802828187617615270000006001456726662666424_" style="overflow:visible"/></clipPath><path d="m512 342.9-80.5-2.3 80.5-89.2v91.5z" style="clip-path:url(#SVGID_00000085949748015264359580000010592887918730363056_);fill:#ffdd47"/><defs><path id="SVGID_00000143611419143503766590000001516892570105544622_" d="M0 0h512v512H0z"/></defs><clipPath id="SVGID_00000155130243747937025460000007427165685013168784_"><use xlink:href="#SVGID_00000143611419143503766590000001516892570105544622_" style="overflow:visible"/></clipPath><path d="M512 502.8 422.1 468l89.9-59.5v94.3z" style="clip-path:url(#SVGID_00000155130243747937025460000007427165685013168784_);fill:#fb7440"/><defs><path id="SVGID_00000098192686937246308430000009315840504214363279_" d="M0 0h512v512H0z"/></defs><clipPath id="SVGID_00000112616697826461746580000010428184801297442199_"><use xlink:href="#SVGID_00000098192686937246308430000009315840504214363279_" style="overflow:visible"/></clipPath><path d="M512 512H345.7l76.4-44 89.9 34.7v9.3z" style="clip-path:url(#SVGID_00000112616697826461746580000010428184801297442199_);fill:#ed5543"/><defs><path id="SVGID_00000013151126987050661050000013884666639176064903_" d="M0 0h512v512H0z"/></defs><clipPath id="SVGID_00000013152986398757244530000018012310188668057986_"><use xlink:href="#SVGID_00000013151126987050661050000013884666639176064903_" style="overflow:visible"/></clipPath><path d="M345.7 512h-50.8l29.9-57.1L422 468l-76.3 44z" style="clip-path:url(#SVGID_00000013152986398757244530000018012310188668057986_);fill:#ed5047"/><defs><path id="SVGID_00000089541893749480901960000011908293786566041791_" d="M0 0h512v512H0z"/></defs><clipPath id="SVGID_00000034088436256108552620000007783919130296803498_"><use xlink:href="#SVGID_00000089541893749480901960000011908293786566041791_" style="overflow:visible"/></clipPath><path d="M294.9 512h-33.3l-8.6-31.8 71.9-25.3-30 57.1z" style="clip-path:url(#SVGID_00000034088436256108552620000007783919130296803498_);fill:#e3464d"/><defs><path id="SVGID_00000030461382331585367240000001586595668027245739_" d="M0 0h512v512H0z"/></defs><clipPath id="SVGID_00000137091486226608916060000014690823799521917371_"><use xlink:href="#SVGID_00000030461382331585367240000001586595668027245739_" style="overflow:visible"/></clipPath><path d="m252.9 480.2 71.9-25.3-44.8-76.4-27.1 101.7z" style="clip-path:url(#SVGID_00000137091486226608916060000014690823799521917371_);fill:#ef514c"/><defs><path id="SVGID_00000119831320649276113940000006052475326829675170_" d="M0 0h512v512H0z"/></defs><clipPath id="SVGID_00000002380580282279211410000018430732936315862459_"><use xlink:href="#SVGID_00000119831320649276113940000006052475326829675170_" style="overflow:visible"/></clipPath><path d="m110.5 347.4 113.2-54.9 56.4 86-169.6-31.1z" style="clip-path:url(#SVGID_00000002380580282279211410000018430732936315862459_);fill:#f55f6e"/><defs><path id="SVGID_00000121986924577981372100000001553258672566311087_" d="M0 0h512v512H0z"/></defs><clipPath id="SVGID_00000153701978438381353260000000484399708949414075_"><use xlink:href="#SVGID_00000121986924577981372100000001553258672566311087_" style="overflow:visible"/></clipPath><path d="m110.5 347.4 74.7 99.5 94.9-68.4" style="clip-path:url(#SVGID_00000153701978438381353260000000484399708949414075_);fill:#ec4b6f"/><defs><path id="SVGID_00000057110882794888725350000016435765294827067520_" d="M0 0h512v512H0z"/></defs><clipPath id="SVGID_00000098908031849803843800000001246680484746686602_"><use xlink:href="#SVGID_00000057110882794888725350000016435765294827067520_" style="overflow:visible"/></clipPath><path d="M252.9 480.2 185.2 447l94.9-68.4-27.2 101.6z" style="clip-path:url(#SVGID_00000098908031849803843800000001246680484746686602_);fill:#ea4754"/><defs><path id="SVGID_00000153663640365233322460000006209872988237672855_" d="M0 0h512v512H0z"/></defs><clipPath id="SVGID_00000023974361492387713430000015409901678354582179_"><use xlink:href="#SVGID_00000153663640365233322460000006209872988237672855_" style="overflow:visible"/></clipPath><path d="m238.6 512-53.4-65 67.8 33.3 8.6 31.8-23-.1z" style="clip-path:url(#SVGID_00000023974361492387713430000015409901678354582179_);fill:#e04152"/><defs><path id="SVGID_00000103951165014813737650000010843872271818854543_" d="M0 0h512v512H0z"/></defs><clipPath id="SVGID_00000140005504345036492990000016340512872332147853_"><use xlink:href="#SVGID_00000103951165014813737650000010843872271818854543_" style="overflow:visible"/></clipPath><path d="m91.4 512 93.8-65 53.4 65.1-147.2-.1z" style="clip-path:url(#SVGID_00000140005504345036492990000016340512872332147853_);fill:#e24168"/><defs><path id="SVGID_00000152256082315402187070000000260118067696112023_" d="M0 0h512v512H0z"/></defs><clipPath id="SVGID_00000115508572821682437980000010144233408211885465_"><use xlink:href="#SVGID_00000152256082315402187070000000260118067696112023_" style="overflow:visible"/></clipPath><path d="M91.4 512h-62L0 459.4v-16.5l185.2 4L91.4 512z" style="clip-path:url(#SVGID_00000115508572821682437980000010144233408211885465_);fill:#d13a63"/><defs><path id="SVGID_00000010989894791169416260000008794868409831363507_" d="M0 0h512v512H0z"/></defs><clipPath id="SVGID_00000100374451205109648050000007556311420064571285_"><use xlink:href="#SVGID_00000010989894791169416260000008794868409831363507_" style="overflow:visible"/></clipPath><path d="M0 512v-52.6L29.4 512H0z" style="clip-path:url(#SVGID_00000100374451205109648050000007556311420064571285_);fill:#bd355e"/><defs><path id="SVGID_00000154428172343388462980000012147453667936001694_" d="M0 0h512v512H0z"/></defs><clipPath id="SVGID_00000167354708183625640400000001564651885123384989_"><use xlink:href="#SVGID_00000154428172343388462980000012147453667936001694_" style="overflow:visible"/></clipPath><path d="M0 442.9v-11.6l65.6-80.4L185.2 447 0 442.9z" style="clip-path:url(#SVGID_00000167354708183625640400000001564651885123384989_);fill:#d33b7a"/><defs><path id="SVGID_00000163030510859319723740000011119956466848951476_" d="M0 0h512v512H0z"/></defs><clipPath id="SVGID_00000096777492386865769010000010818717145360403610_"><use xlink:href="#SVGID_00000163030510859319723740000011119956466848951476_" style="overflow:visible"/></clipPath><path d="M65.5 350.9 185.2 447l-74.7-99.5-45 3.4z" style="clip-path:url(#SVGID_00000096777492386865769010000010818717145360403610_);fill:#dd4073"/><defs><path id="SVGID_00000111882484262631852910000010407051449549698735_" d="M0 0h512v512H0z"/></defs><clipPath id="SVGID_00000183240708126706183660000009620057720712753847_"><use xlink:href="#SVGID_00000111882484262631852910000010407051449549698735_" style="overflow:visible"/></clipPath><path d="M65.5 350.9 0 280.3v-4.8l110.5 71.9-45 3.5z" style="clip-path:url(#SVGID_00000183240708126706183660000009620057720712753847_);fill:#6b236b"/><defs><path id="SVGID_00000037680680378577026220000017703840217833960099_" d="M0 0h512v512H0z"/></defs><clipPath id="SVGID_00000073694581503034166930000015889284251900071823_"><use xlink:href="#SVGID_00000037680680378577026220000017703840217833960099_" style="overflow:visible"/></clipPath><path d="M0 335.4v-55l65.5 70.5L0 335.4z" style="clip-path:url(#SVGID_00000073694581503034166930000015889284251900071823_);fill:#612770"/><defs><path id="SVGID_00000081642318069080925710000009415085399587983239_" d="M0 0h512v512H0z"/></defs><clipPath id="SVGID_00000111894224824208584190000017545351239359365017_"><use xlink:href="#SVGID_00000081642318069080925710000009415085399587983239_" style="overflow:visible"/></clipPath><path d="M0 431.3v-95.9l65.5 15.5L0 431.3z" style="clip-path:url(#SVGID_00000111894224824208584190000017545351239359365017_);fill:#8c286b"/><defs><path id="SVGID_00000125597099138746038260000007571119242314426790_" d="M0 0h512v512H0z"/></defs><clipPath id="SVGID_00000132778134227718787800000006241261353318807992_"><use xlink:href="#SVGID_00000125597099138746038260000007571119242314426790_" style="overflow:visible"/></clipPath></g><g id="layer1_00000159450455357436027290000009146725095199940260_" transform="translate(-36.380379 -256.78621)"><path id="path817-3_00000142877095274698506600000011184462987732776878_" d="M159.8 397.8h-1.1c-1.7 0-3.3.1-4.9.3-13 1.5-24.7 8.4-31.9 20.5-7 11.8-8.8 24.9-5.2 36.9 3.6 12.1 12.3 23 25.1 31.7.1.1.2.1.2.2 11 6.6 22 11.1 33.7 13.4-.3 4.8-.3 9.8 0 14.9.9 15.4 6.4 29.6 14.6 42.1L160.9 570c-3.2 1.3-4.7 4.9-3.4 8 1.3 3.2 4.9 4.7 8.1 3.3l32.6-13.3c6 7.2 13 13.7 20.4 19.4l.9.6-19.1 25.2c-2.1 2.7-1.6 6.6 1.2 8.7 2.7 2.1 6.6 1.5 8.7-1.3l19.4-25.6c10.6 6.7 21.9 12 33.1 15.5 5.7 10.5 16.9 17.2 29.8 17.2 13 0 24.2-7.2 29.9-17.5 11-3.5 22.2-8.8 32.7-15.5l19.6 26c2 2.8 5.9 3.3 8.7 1.3 2.7-2.1 3.3-6 1.2-8.7l-19.4-25.6c.1-.1.3-.2.4-.3 7.4-5.6 14.2-12 20.3-19.1l31.7 13c3.2 1.3 6.8-.2 8.1-3.3 1.3-3.2-.3-6.8-3.4-8l-28.7-11.7c8.5-12.6 14.2-26.9 15.4-42.5.4-5.1.5-10.2.2-15.1 11.7-2.3 22.6-6.8 33.5-13.4.1 0 .2-.1.2-.2 12.8-8.7 21.5-19.6 25.1-31.7 3.6-12.1 1.9-25.1-5.2-36.9-7.2-12.1-18.9-19-31.9-20.5-1.6-.2-3.3-.3-4.9-.3-11.6-.2-24 3.4-35.9 10.3-8.8 5.1-16.7 12.8-22.8 21.3-17.3-9.9-39.8-15.5-67.5-15.9h-7.6c-30.8.5-55.5 6.3-74.1 16.9 0-.1-.1-.1-.1-.2-6.3-8.7-14.4-16.8-23.4-22-11.6-6.7-23.6-10.3-34.9-10.3h0z" style="fill:none;stroke:#fff;stroke-width:5.25;stroke-linecap:round;stroke-linejoin:round;stroke-miterlimit:10"/><path id="path1087_00000150781578272259943020000016400027563912496027_" d="M371.1 433.2c5.9-8.2 13.6-15.8 21.7-20.5 25.6-14.8 52.7-12.8 65.4 8.6 12.7 21.4 5.8 45.2-18.3 61.4-12.3 7.4-24.2 11.9-37.4 13.7m-188.9-63.2c-5.9-8.2-13.6-15.8-21.7-20.5-25.6-14.8-52.7-12.8-65.4 8.6-12.7 21.4-5.8 45.2 18.3 61.4 12.3 7.4 24.2 11.9 37.4 13.7" class="st62"/><path id="path969_00000005265271486962101380000012337681786077735338_" d="M403.6 515.4c4.4-57.6-31-98-111.2-96.6s-114.7 39.4-111.2 96.6c3.3 54.6 68 94.7 110.8 94.7s107.4-40.2 111.6-94.7z" class="st62"/><path id="path1084_00000101104558612373531170000014885427460688208514_" d="M330.2 541.3c0 8.9 7.2 16.1 16.1 16.1 8.9 0 16.1-7.2 16.1-16.1 0-8.9-7.2-16.1-16.1-16.1-8.9 0-16.1 7.2-16.1 16.1zm-107.8 0c0 9 7.3 16.2 16.2 16.2 9 0 16.2-7.3 16.2-16.2 0-9-7.3-16.2-16.2-16.2s-16.2 7.3-16.2 16.2z"/><path id="path1008_00000159432767391596693140000003375915804327089805_" d="m226.2 589.3-21 27.8m153.4-27.8 21 27.8m-182.7-55.2-33.7 13.8m222.9-13.8 33.7 13.8" style="fill:none;stroke:#000;stroke-width:6;stroke-linecap:round;stroke-miterlimit:10"/><path id="path1115_00000147194250314889227560000017094108710278492342_" d="M292.4 567.8c-17.6 0-28.9 12.2-28.5 27.3.4 16.3 12.5 27.3 28.5 27.3s28.5-12.7 28.5-27.3c0-15.1-10.9-27.3-28.5-27.3z" class="st62"/></g></svg>