<?xml version="1.0" encoding="utf-8"?>
<!-- Generator: Adobe Illustrator 27.6.1, SVG Export Plug-In . SVG Version: 6.00 Build 0)  -->
<svg version="1.1" id="Layer_1" xmlns="http://www.w3.org/2000/svg" xmlns:xlink="http://www.w3.org/1999/xlink" x="0px" y="0px"
	 viewBox="0 0 512 512" style="enable-background:new 0 0 512 512;" xml:space="preserve">
<style type="text/css">
	.st0{clip-path:url(#SVGID_00000037680400300498836560000016987414740650144416_);fill:#2B5198;}
	.st1{clip-path:url(#SVGID_00000005980772950637641150000014480502668489454231_);fill:#356FB1;}
	.st2{clip-path:url(#SVGID_00000012461287534670387140000005989881910461298072_);fill:#377DAF;}
	.st3{clip-path:url(#SVGID_00000099622598251764967890000003994745995929301950_);fill:#4496AB;}
	.st4{clip-path:url(#SVGID_00000023266190928730551120000007875333585763850427_);fill:#449688;}
	.st5{clip-path:url(#SVGID_00000036959754874048929970000017552568639239044540_);fill:#4EA06B;}
	.st6{clip-path:url(#SVGID_00000067957665865858529460000003101286654557044377_);fill:#54A673;}
	.st7{clip-path:url(#SVGID_00000012473603934337238070000009097885517262856341_);fill:#7DB44D;}
	.st8{clip-path:url(#SVGID_00000003090489914507048510000003523949339277768351_);fill:#7DB44D;}
	.st9{clip-path:url(#SVGID_00000150089532829925073380000005758354713970086818_);fill:#96BA42;}
	.st10{clip-path:url(#SVGID_00000125594178110549144150000004601016845149392558_);fill:#9EBA3C;}
	.st11{clip-path:url(#SVGID_00000171704426833433816450000012346373294464878757_);fill:#9DC247;}
	.st12{clip-path:url(#SVGID_00000026881459829319225140000009654943045563836850_);fill:#88BB4D;}
	.st13{clip-path:url(#SVGID_00000150820212350318484380000016247811516487964576_);fill:#86C054;}
	.st14{clip-path:url(#SVGID_00000053537449157514505980000001764592379609409458_);fill:#86C054;}
	.st15{clip-path:url(#SVGID_00000056401010463869498420000017120181811559359422_);fill:#6AB76E;}
	.st16{clip-path:url(#SVGID_00000168819606178088732320000006287605234605780379_);fill:#61B47B;}
	.st17{clip-path:url(#SVGID_00000075868513473698255080000011463065851871196846_);fill:#469B9B;}
	.st18{clip-path:url(#SVGID_00000011720481046211597210000008523481742898368692_);fill:#4189A9;}
	.st19{clip-path:url(#SVGID_00000021800541352229074730000005483100010363455632_);fill:#334890;}
	.st20{clip-path:url(#SVGID_00000049207787052943527700000018046222166725879684_);fill:#3860AA;}
	.st21{clip-path:url(#SVGID_00000158013580006691976840000001456253089265257646_);fill:#3E5AA4;}
	.st22{clip-path:url(#SVGID_00000094595544520657985120000002026322228220778914_);fill:#484494;}
	.st23{clip-path:url(#SVGID_00000063615084398299748840000017102056356194686857_);fill:#53398C;}
	.st24{clip-path:url(#SVGID_00000147904053955476273810000008204705420222075803_);fill:#A95B7B;}
	.st25{clip-path:url(#SVGID_00000011023285663891986240000013530808830081310607_);fill:#8A8967;}
	.st26{clip-path:url(#SVGID_00000150098261201320345120000009521468266151551133_);fill:#509587;}
	.st27{clip-path:url(#SVGID_00000123427273266233883390000003569367900445327491_);fill:#C3C83C;}
	.st28{clip-path:url(#SVGID_00000134224400725463653850000012648369747980674456_);fill:#AAD35E;}
	.st29{clip-path:url(#SVGID_00000168809945876837363650000007709004232199953540_);fill:#FAED4B;}
	.st30{clip-path:url(#SVGID_00000035489150694492761550000001574457530034496159_);fill:#B1C83C;}
	.st31{clip-path:url(#SVGID_00000020363867272396532080000008983750309802133638_);fill:#A6A92E;}
	.st32{clip-path:url(#SVGID_00000033353960717940187120000010993148639830259084_);fill:#F8E644;}
	.st33{clip-path:url(#SVGID_00000122714690406216567810000007358758589930562449_);fill:#FDE145;}
	.st34{clip-path:url(#SVGID_00000096033629904507714670000009908370548980159137_);fill:#FBD44A;}
	.st35{clip-path:url(#SVGID_00000006707865435576812160000013143301730462393760_);fill:#FAD247;}
	.st36{clip-path:url(#SVGID_00000003797880385217842150000005534735716193184129_);fill:#F8B456;}
	.st37{clip-path:url(#SVGID_00000104701675913262442410000010022667383028315577_);fill:#F7804F;}
	.st38{clip-path:url(#SVGID_00000150824977543835247160000006768499670580556433_);fill:#FD9B45;}
	.st39{clip-path:url(#SVGID_00000085244573552318428880000003872141913239757751_);fill:#FA7B45;}
	.st40{clip-path:url(#SVGID_00000143600395091416842980000011576338340336555195_);fill:#FC7F4D;}
	.st41{clip-path:url(#SVGID_00000042000357874595218320000014358603474172290190_);fill:#FE9A42;}
	.st42{clip-path:url(#SVGID_00000049942043056448832990000012865403704478944174_);fill:#FEB040;}
	.st43{clip-path:url(#SVGID_00000168799918234063228670000001231462805846309028_);fill:#FFDD47;}
	.st44{clip-path:url(#SVGID_00000181801335045397908790000017844266384729881995_);fill:#FB7440;}
	.st45{clip-path:url(#SVGID_00000115487107836950359060000013711887263037384596_);fill:#ED5543;}
	.st46{clip-path:url(#SVGID_00000086665296184239544320000017166782467573387173_);fill:#ED5047;}
	.st47{clip-path:url(#SVGID_00000057856956792744465920000009444505742194146200_);fill:#E3464D;}
	.st48{clip-path:url(#SVGID_00000030488809444069089270000016621140514107302280_);fill:#EF514C;}
	.st49{clip-path:url(#SVGID_00000101078249466712563490000009231524226335609016_);fill:#F55F6E;}
	.st50{clip-path:url(#SVGID_00000172417915217951601610000018354120890502034827_);fill:#EC4B6F;}
	.st51{clip-path:url(#SVGID_00000173875056589199410680000014261509956247301294_);fill:#EA4754;}
	.st52{clip-path:url(#SVGID_00000093871570481749943450000008346474806353406654_);fill:#E04152;}
	.st53{clip-path:url(#SVGID_00000175311227471712149660000016701729600545735058_);fill:#E24168;}
	.st54{clip-path:url(#SVGID_00000042735351448538736240000012042669115386628005_);fill:#D13A63;}
	.st55{clip-path:url(#SVGID_00000052072432706208262140000016711830283528144777_);fill:#BD355E;}
	.st56{clip-path:url(#SVGID_00000182528018968049170990000013066444665524118157_);fill:#D33B7A;}
	.st57{clip-path:url(#SVGID_00000019654134850419320250000006302160583908523959_);fill:#DD4073;}
	.st58{clip-path:url(#SVGID_00000153697862447118169800000008312365514583907237_);fill:#6B236B;}
	.st59{clip-path:url(#SVGID_00000164509083397406135230000016955910146840360344_);fill:#612770;}
	.st60{clip-path:url(#SVGID_00000049185462174738785900000012087215982515402158_);fill:#8C286B;}
	.st61{fill:none;stroke:#FFFFFF;stroke-width:5.25;stroke-linecap:round;stroke-linejoin:round;stroke-miterlimit:10;}
	.st62{fill:#FFFFFF;stroke:#000000;stroke-width:5.25;stroke-linecap:round;stroke-linejoin:round;stroke-miterlimit:10;}
	.st63{fill:none;stroke:#000000;stroke-width:6;stroke-linecap:round;stroke-miterlimit:10;}
</style>
<g id="Layer_1_00000044884552772027738920000004656105546809904525_">
	<g>
		<g>
			<defs>
				<rect id="SVGID_1_" width="512" height="512"/>
			</defs>
			<clipPath id="SVGID_00000065778685596222188760000018209442538631216049_">
				<use xlink:href="#SVGID_1_"  style="overflow:visible;"/>
			</clipPath>
			<path style="clip-path:url(#SVGID_00000065778685596222188760000018209442538631216049_);fill:#2B5198;" d="M0,113.6V0h38.5
				l88.7,68.8L0,113.6z"/>
		</g>
	</g>
	<g>
		<g>
			<defs>
				<rect id="SVGID_00000100350093529111872330000016710344742806044556_" width="512" height="512"/>
			</defs>
			<clipPath id="SVGID_00000167380948846718979730000002953123002220748955_">
				<use xlink:href="#SVGID_00000100350093529111872330000016710344742806044556_"  style="overflow:visible;"/>
			</clipPath>
			<path style="clip-path:url(#SVGID_00000167380948846718979730000002953123002220748955_);fill:#356FB1;" d="M38.5,0h59.7l29,68.8
				L38.5,0z"/>
		</g>
	</g>
	<g>
		<g>
			<defs>
				<rect id="SVGID_00000166664385565941611320000006431050958103743380_" width="512" height="512"/>
			</defs>
			<clipPath id="SVGID_00000140007613377956569080000003955756937611960737_">
				<use xlink:href="#SVGID_00000166664385565941611320000006431050958103743380_"  style="overflow:visible;"/>
			</clipPath>
			<path style="clip-path:url(#SVGID_00000140007613377956569080000003955756937611960737_);fill:#377DAF;" d="M127.2,68.8L98.2,0
				H170L127.2,68.8z"/>
		</g>
	</g>
	<g>
		<g>
			<defs>
				<rect id="SVGID_00000093155178035581075660000011700118832283620758_" width="512" height="512"/>
			</defs>
			<clipPath id="SVGID_00000047755572118904371140000004980467809522818944_">
				<use xlink:href="#SVGID_00000093155178035581075660000011700118832283620758_"  style="overflow:visible;"/>
			</clipPath>
			<path style="clip-path:url(#SVGID_00000047755572118904371140000004980467809522818944_);fill:#4496AB;" d="M127.2,68.8L170,0
				h29.1l93.1,32.4L127.2,68.8z"/>
		</g>
	</g>
	<g>
		<g>
			<defs>
				<rect id="SVGID_00000149375436825525379340000001328536003264195235_" width="512" height="512"/>
			</defs>
			<clipPath id="SVGID_00000088844843699463620160000002330582693807049148_">
				<use xlink:href="#SVGID_00000149375436825525379340000001328536003264195235_"  style="overflow:visible;"/>
			</clipPath>
			<path style="clip-path:url(#SVGID_00000088844843699463620160000002330582693807049148_);fill:#449688;" d="M292.1,32.4L199.1,0
				h102.1L292.1,32.4z"/>
		</g>
	</g>
	<g>
		<g>
			<defs>
				<rect id="SVGID_00000077319667841847517440000000853527841383141799_" width="512" height="512"/>
			</defs>
			<clipPath id="SVGID_00000030477902756510734590000004259176410126178447_">
				<use xlink:href="#SVGID_00000077319667841847517440000000853527841383141799_"  style="overflow:visible;"/>
			</clipPath>
			<path style="clip-path:url(#SVGID_00000030477902756510734590000004259176410126178447_);fill:#4EA06B;" d="M292.1,32.4L301.2,0
				H334l22.8,37.5L292.1,32.4z"/>
		</g>
	</g>
	<g>
		<g>
			<defs>
				<rect id="SVGID_00000049922414740158146040000002933446901083389370_" width="512" height="512"/>
			</defs>
			<clipPath id="SVGID_00000131333161885135241960000008043312617001125805_">
				<use xlink:href="#SVGID_00000049922414740158146040000002933446901083389370_"  style="overflow:visible;"/>
			</clipPath>
			<path style="clip-path:url(#SVGID_00000131333161885135241960000008043312617001125805_);fill:#54A673;" d="M356.8,37.5L334,0
				h74.9L356.8,37.5z"/>
		</g>
	</g>
	<g>
		<g>
			<defs>
				<rect id="SVGID_00000066502166819216598300000012812602715588652931_" width="512" height="512"/>
			</defs>
			<clipPath id="SVGID_00000091726329836903098260000013352083369356397462_">
				<use xlink:href="#SVGID_00000066502166819216598300000012812602715588652931_"  style="overflow:visible;"/>
			</clipPath>
			<path style="clip-path:url(#SVGID_00000091726329836903098260000013352083369356397462_);fill:#7DB44D;" d="M356.8,37.5L408.9,0
				h11l32.4,24.2L356.8,37.5z"/>
		</g>
	</g>
	<g>
		<g>
			<defs>
				<rect id="SVGID_00000072976080405168922610000009249135382632482451_" width="512" height="512"/>
			</defs>
			<clipPath id="SVGID_00000131344446618940018190000017521563841835838896_">
				<use xlink:href="#SVGID_00000072976080405168922610000009249135382632482451_"  style="overflow:visible;"/>
			</clipPath>
			<path style="clip-path:url(#SVGID_00000131344446618940018190000017521563841835838896_);fill:#7DB44D;" d="M452.2,24.3L419.9,0
				h42.4L452.2,24.3z"/>
		</g>
	</g>
	<g>
		<g>
			<defs>
				<rect id="SVGID_00000177463096232153550800000009135033123935048102_" width="512" height="512"/>
			</defs>
			<clipPath id="SVGID_00000077318487671307945140000008471818866932723337_">
				<use xlink:href="#SVGID_00000177463096232153550800000009135033123935048102_"  style="overflow:visible;"/>
			</clipPath>
			<path style="clip-path:url(#SVGID_00000077318487671307945140000008471818866932723337_);fill:#96BA42;" d="M512,16l-59.8,8.2
				l10-24.3H512V16z"/>
		</g>
	</g>
	<g>
		<g>
			<defs>
				<rect id="SVGID_00000045587388932418709430000011891813780049425075_" width="512" height="512"/>
			</defs>
			<clipPath id="SVGID_00000165943193310364975240000003757108417936326539_">
				<use xlink:href="#SVGID_00000045587388932418709430000011891813780049425075_"  style="overflow:visible;"/>
			</clipPath>
			<path style="clip-path:url(#SVGID_00000165943193310364975240000003757108417936326539_);fill:#9EBA3C;" d="M512,33.9l-94.8,55.5
				l35-65.2L512,16V33.9z"/>
		</g>
	</g>
	<g>
		<g>
			<defs>
				<rect id="SVGID_00000124162128863829019900000004460924768958868134_" width="512" height="512"/>
			</defs>
			<clipPath id="SVGID_00000152971605855820964580000002053530863718568626_">
				<use xlink:href="#SVGID_00000124162128863829019900000004460924768958868134_"  style="overflow:visible;"/>
			</clipPath>
			<path style="clip-path:url(#SVGID_00000152971605855820964580000002053530863718568626_);fill:#9DC247;" d="M452.2,24.3l-22.6,18
				l-12.4,47.2L452.2,24.3z"/>
		</g>
	</g>
	<g>
		<g>
			<defs>
				<rect id="SVGID_00000029765737113060629310000008727519701453509040_" width="512" height="512"/>
			</defs>
			<clipPath id="SVGID_00000093861179532281684430000012158433862721971351_">
				<use xlink:href="#SVGID_00000029765737113060629310000008727519701453509040_"  style="overflow:visible;"/>
			</clipPath>
			<path style="clip-path:url(#SVGID_00000093861179532281684430000012158433862721971351_);fill:#88BB4D;" d="M452.2,24.3l-22.6,18
				l-72.8-4.7L452.2,24.3z"/>
		</g>
	</g>
	<g>
		<g>
			<defs>
				<rect id="SVGID_00000129181224355963417970000015650348450525573263_" width="512" height="512"/>
			</defs>
			<clipPath id="SVGID_00000122704015338434290330000010008158623337019327_">
				<use xlink:href="#SVGID_00000129181224355963417970000015650348450525573263_"  style="overflow:visible;"/>
			</clipPath>
			<path style="clip-path:url(#SVGID_00000122704015338434290330000010008158623337019327_);fill:#86C054;" d="M417.2,89.4
				l12.4-47.2l-72.8-4.7L417.2,89.4z"/>
		</g>
	</g>
	<g>
		<g>
			<defs>
				<rect id="SVGID_00000028318717761859827490000014753225474735495296_" width="512" height="512"/>
			</defs>
			<clipPath id="SVGID_00000040536617070766513550000016444570741146868882_">
				<use xlink:href="#SVGID_00000028318717761859827490000014753225474735495296_"  style="overflow:visible;"/>
			</clipPath>
			<path style="clip-path:url(#SVGID_00000040536617070766513550000016444570741146868882_);fill:#86C054;" d="M417.2,89.4
				l-98.1,4.7l37.7-56.6L417.2,89.4z"/>
		</g>
	</g>
	<g>
		<g>
			<defs>
				<rect id="SVGID_00000050637328281777404530000006375584632356708785_" width="512" height="512"/>
			</defs>
			<clipPath id="SVGID_00000064322177771561114110000010021563317149482164_">
				<use xlink:href="#SVGID_00000050637328281777404530000006375584632356708785_"  style="overflow:visible;"/>
			</clipPath>
			<path style="clip-path:url(#SVGID_00000064322177771561114110000010021563317149482164_);fill:#6AB76E;" d="M292.1,32.4l27,61.7
				l37.7-56.6L292.1,32.4z"/>
		</g>
	</g>
	<g>
		<g>
			<defs>
				<rect id="SVGID_00000087383249541241073400000008610053070997319341_" width="512" height="512"/>
			</defs>
			<clipPath id="SVGID_00000072966585331798438220000017279656356604384410_">
				<use xlink:href="#SVGID_00000087383249541241073400000008610053070997319341_"  style="overflow:visible;"/>
			</clipPath>
			<path style="clip-path:url(#SVGID_00000072966585331798438220000017279656356604384410_);fill:#61B47B;" d="M292.1,32.4l27,61.7
				l-72.2,46.7L292.1,32.4z"/>
		</g>
	</g>
	<g>
		<g>
			<defs>
				<rect id="SVGID_00000029027450433862404400000006171665447649285561_" width="512" height="512"/>
			</defs>
			<clipPath id="SVGID_00000013157064876178126230000006316800934391708072_">
				<use xlink:href="#SVGID_00000029027450433862404400000006171665447649285561_"  style="overflow:visible;"/>
			</clipPath>
			<path style="clip-path:url(#SVGID_00000013157064876178126230000006316800934391708072_);fill:#469B9B;" d="M292.1,32.4
				L127.2,68.8l119.7,72L292.1,32.4z"/>
		</g>
	</g>
	<g>
		<g>
			<defs>
				<rect id="SVGID_00000169555795384239385070000011351062171003214497_" width="512" height="512"/>
			</defs>
			<clipPath id="SVGID_00000042728262677192652800000015308176436770083234_">
				<use xlink:href="#SVGID_00000169555795384239385070000011351062171003214497_"  style="overflow:visible;"/>
			</clipPath>
			<path style="clip-path:url(#SVGID_00000042728262677192652800000015308176436770083234_);fill:#4189A9;" d="M160.6,180.7
				L127.2,68.8l119.7,72L160.6,180.7z"/>
		</g>
	</g>
	<g>
		<g>
			<defs>
				<rect id="SVGID_00000115515181531544313540000018322945550987581067_" width="512" height="512"/>
			</defs>
			<clipPath id="SVGID_00000136390697712344738430000005829667558272592305_">
				<use xlink:href="#SVGID_00000115515181531544313540000018322945550987581067_"  style="overflow:visible;"/>
			</clipPath>
			<path style="clip-path:url(#SVGID_00000136390697712344738430000005829667558272592305_);fill:#334890;" d="M0,211.5v-98
				l127.2-44.7L0,211.5z"/>
		</g>
	</g>
	<g>
		<g>
			<defs>
				<rect id="SVGID_00000023995966843562744370000011152693014815037577_" width="512" height="512"/>
			</defs>
			<clipPath id="SVGID_00000031179238241428785500000000953204440960648088_">
				<use xlink:href="#SVGID_00000023995966843562744370000011152693014815037577_"  style="overflow:visible;"/>
			</clipPath>
			<path style="clip-path:url(#SVGID_00000031179238241428785500000000953204440960648088_);fill:#3860AA;" d="M0,222.5v-11
				L127.2,68.8l26.5,88.9L0,222.5z"/>
		</g>
	</g>
	<g>
		<g>
			<defs>
				<rect id="SVGID_00000045601597119703035110000000156478745256146341_" width="512" height="512"/>
			</defs>
			<clipPath id="SVGID_00000143579877109442310840000006970995447345748872_">
				<use xlink:href="#SVGID_00000045601597119703035110000000156478745256146341_"  style="overflow:visible;"/>
			</clipPath>
			<path style="clip-path:url(#SVGID_00000143579877109442310840000006970995447345748872_);fill:#3E5AA4;" d="M0,224.8v-2.3
				l153.7-64.8l6.9,23L0,224.8z"/>
		</g>
	</g>
	<g>
		<g>
			<defs>
				<rect id="SVGID_00000073000146291380156470000015022840054033482650_" width="512" height="512"/>
			</defs>
			<clipPath id="SVGID_00000119084725231364810550000018412808988905369013_">
				<use xlink:href="#SVGID_00000073000146291380156470000015022840054033482650_"  style="overflow:visible;"/>
			</clipPath>
			<path style="clip-path:url(#SVGID_00000119084725231364810550000018412808988905369013_);fill:#484494;" d="M0,262.4v-37.5
				l160.6-44.1L0,262.4z"/>
		</g>
	</g>
	<g>
		<g>
			<defs>
				<rect id="SVGID_00000016034756439283781050000006944996442933879436_" width="512" height="512"/>
			</defs>
			<clipPath id="SVGID_00000107579397015011969170000003381999828815154331_">
				<use xlink:href="#SVGID_00000016034756439283781050000006944996442933879436_"  style="overflow:visible;"/>
			</clipPath>
			<path style="clip-path:url(#SVGID_00000107579397015011969170000003381999828815154331_);fill:#53398C;" d="M110.5,347.4L0,275.5
				v-13.2l160.6-81.7L110.5,347.4z"/>
		</g>
	</g>
	<g>
		<g>
			<defs>
				<rect id="SVGID_00000057115303219550944400000014147450660657880737_" width="512" height="512"/>
			</defs>
			<clipPath id="SVGID_00000165207067858840565020000006210016059109415565_">
				<use xlink:href="#SVGID_00000057115303219550944400000014147450660657880737_"  style="overflow:visible;"/>
			</clipPath>
			<path style="clip-path:url(#SVGID_00000165207067858840565020000006210016059109415565_);fill:#A95B7B;" d="M160.6,180.7
				l63.1,111.9l-113.2,54.9L160.6,180.7z"/>
		</g>
	</g>
	<g>
		<g>
			<defs>
				<rect id="SVGID_00000083773893723550207760000007506388035628290723_" width="512" height="512"/>
			</defs>
			<clipPath id="SVGID_00000023262197041707024570000016128213509476371852_">
				<use xlink:href="#SVGID_00000083773893723550207760000007506388035628290723_"  style="overflow:visible;"/>
			</clipPath>
			<path style="clip-path:url(#SVGID_00000023262197041707024570000016128213509476371852_);fill:#8A8967;" d="M160.6,180.7
				l63.1,111.9l32.9-97.7L160.6,180.7z"/>
		</g>
	</g>
	<g>
		<g>
			<defs>
				<rect id="SVGID_00000057120387462097837270000007727141668593410709_" width="512" height="512"/>
			</defs>
			<clipPath id="SVGID_00000010295350781073004540000004636675103754732710_">
				<use xlink:href="#SVGID_00000057120387462097837270000007727141668593410709_"  style="overflow:visible;"/>
			</clipPath>
			<path style="clip-path:url(#SVGID_00000010295350781073004540000004636675103754732710_);fill:#509587;" d="M160.6,180.7
				l86.2-39.9l9.7,54L160.6,180.7z"/>
		</g>
	</g>
	<g>
		<g>
			<defs>
				<rect id="SVGID_00000093149785815895145460000011963858742203377835_" width="512" height="512"/>
			</defs>
			<clipPath id="SVGID_00000162349620493496932900000006822147599449045148_">
				<use xlink:href="#SVGID_00000093149785815895145460000011963858742203377835_"  style="overflow:visible;"/>
			</clipPath>
			<path style="clip-path:url(#SVGID_00000162349620493496932900000006822147599449045148_);fill:#C3C83C;" d="M351.4,214.1
				l-104.6-73.3l9.7,54L351.4,214.1z"/>
		</g>
	</g>
	<g>
		<g>
			<defs>
				<rect id="SVGID_00000074408694956018832540000007420174793441931181_" width="512" height="512"/>
			</defs>
			<clipPath id="SVGID_00000036948803653018667020000001504648774054368900_">
				<use xlink:href="#SVGID_00000074408694956018832540000007420174793441931181_"  style="overflow:visible;"/>
			</clipPath>
			<path style="clip-path:url(#SVGID_00000036948803653018667020000001504648774054368900_);fill:#AAD35E;" d="M351.4,214.1
				l-104.6-73.3L319,94.1L351.4,214.1z"/>
		</g>
	</g>
	<g>
		<g>
			<defs>
				<rect id="SVGID_00000139288829297784589850000011334798988621442228_" width="512" height="512"/>
			</defs>
			<clipPath id="SVGID_00000131327661244433972940000004822946770709833869_">
				<use xlink:href="#SVGID_00000139288829297784589850000011334798988621442228_"  style="overflow:visible;"/>
			</clipPath>
			<path style="clip-path:url(#SVGID_00000131327661244433972940000004822946770709833869_);fill:#FAED4B;" d="M512,192.9
				l-160.6,21.2l65.8-124.7L512,148V192.9z"/>
		</g>
	</g>
	<g>
		<g>
			<defs>
				<rect id="SVGID_00000060027627653644834150000000031492873522189979_" width="512" height="512"/>
			</defs>
			<clipPath id="SVGID_00000021818153869819076520000016238616132219582364_">
				<use xlink:href="#SVGID_00000060027627653644834150000000031492873522189979_"  style="overflow:visible;"/>
			</clipPath>
			<path style="clip-path:url(#SVGID_00000021818153869819076520000016238616132219582364_);fill:#B1C83C;" d="M351.4,214.1
				l65.8-124.7l-98.1,4.7L351.4,214.1z"/>
		</g>
	</g>
	<g>
		<g>
			<defs>
				<rect id="SVGID_00000049223203167686508890000005276850910714463872_" width="512" height="512"/>
			</defs>
			<clipPath id="SVGID_00000181777542400014647070000009919880268510376098_">
				<use xlink:href="#SVGID_00000049223203167686508890000005276850910714463872_"  style="overflow:visible;"/>
			</clipPath>
			<path style="clip-path:url(#SVGID_00000181777542400014647070000009919880268510376098_);fill:#A6A92E;" d="M512,70.8l-94.8,18.6
				L512,33.9V70.8z"/>
		</g>
	</g>
	<g>
		<g>
			<defs>
				<rect id="SVGID_00000170245235057455818910000013394433082867179433_" width="512" height="512"/>
			</defs>
			<clipPath id="SVGID_00000006709503691237022990000016996381013383749280_">
				<use xlink:href="#SVGID_00000170245235057455818910000013394433082867179433_"  style="overflow:visible;"/>
			</clipPath>
			<path style="clip-path:url(#SVGID_00000006709503691237022990000016996381013383749280_);fill:#F8E644;" d="M512,148l-94.8-58.6
				L512,70.8V148z"/>
		</g>
	</g>
	<g>
		<g>
			<defs>
				<rect id="SVGID_00000168076008628106773370000014855521965159178407_" width="512" height="512"/>
			</defs>
			<clipPath id="SVGID_00000032610052798774322760000016425772837221019052_">
				<use xlink:href="#SVGID_00000168076008628106773370000014855521965159178407_"  style="overflow:visible;"/>
			</clipPath>
			<path style="clip-path:url(#SVGID_00000032610052798774322760000016425772837221019052_);fill:#FDE145;" d="M512,251.4
				l-80.5,89.2l-80.1-126.4L512,192.9V251.4z"/>
		</g>
	</g>
	<g>
		<g>
			<defs>
				<rect id="SVGID_00000080905093242379851920000005097987288126906283_" width="512" height="512"/>
			</defs>
			<clipPath id="SVGID_00000118376438082689521450000003771798298356145045_">
				<use xlink:href="#SVGID_00000080905093242379851920000005097987288126906283_"  style="overflow:visible;"/>
			</clipPath>
			<path style="clip-path:url(#SVGID_00000118376438082689521450000003771798298356145045_);fill:#FBD44A;" d="M351.4,214.1
				l80.1,126.5L260,282L351.4,214.1z"/>
		</g>
	</g>
	<g>
		<g>
			<defs>
				<rect id="SVGID_00000053529921530763538620000007476782350490537897_" width="512" height="512"/>
			</defs>
			<clipPath id="SVGID_00000183966430457122426910000003535112975891566259_">
				<use xlink:href="#SVGID_00000053529921530763538620000007476782350490537897_"  style="overflow:visible;"/>
			</clipPath>
			<path style="clip-path:url(#SVGID_00000183966430457122426910000003535112975891566259_);fill:#FAD247;" d="M351.4,214.1
				l-94.9-19.3L260,282L351.4,214.1z"/>
		</g>
	</g>
	<g>
		<g>
			<defs>
				<rect id="SVGID_00000036239802477206804510000016910010923604844963_" width="512" height="512"/>
			</defs>
			<clipPath id="SVGID_00000046309719942369616440000010902722264596514970_">
				<use xlink:href="#SVGID_00000036239802477206804510000016910010923604844963_"  style="overflow:visible;"/>
			</clipPath>
			<path style="clip-path:url(#SVGID_00000046309719942369616440000010902722264596514970_);fill:#F8B456;" d="M223.7,292.6
				l32.9-97.7L260,282L223.7,292.6z"/>
		</g>
	</g>
	<g>
		<g>
			<defs>
				<rect id="SVGID_00000106869192943183172250000013961602629093046450_" width="512" height="512"/>
			</defs>
			<clipPath id="SVGID_00000177454114557465187820000013220777747001426328_">
				<use xlink:href="#SVGID_00000106869192943183172250000013961602629093046450_"  style="overflow:visible;"/>
			</clipPath>
			<path style="clip-path:url(#SVGID_00000177454114557465187820000013220777747001426328_);fill:#F7804F;" d="M223.7,292.6l56.4,86
				L260,282L223.7,292.6z"/>
		</g>
	</g>
	<g>
		<g>
			<defs>
				<rect id="SVGID_00000016784767725680322030000006345194727031738557_" width="512" height="512"/>
			</defs>
			<clipPath id="SVGID_00000010304919535004310770000016924976019564929981_">
				<use xlink:href="#SVGID_00000016784767725680322030000006345194727031738557_"  style="overflow:visible;"/>
			</clipPath>
			<path style="clip-path:url(#SVGID_00000010304919535004310770000016924976019564929981_);fill:#FD9B45;" d="M280,378.5l151.5-38
				L260,282L280,378.5z"/>
		</g>
	</g>
	<g>
		<g>
			<defs>
				<rect id="SVGID_00000000904145356071387240000010417877855863680930_" width="512" height="512"/>
			</defs>
			<clipPath id="SVGID_00000010269905455700155730000002974930371101573546_">
				<use xlink:href="#SVGID_00000000904145356071387240000010417877855863680930_"  style="overflow:visible;"/>
			</clipPath>
			<path style="clip-path:url(#SVGID_00000010269905455700155730000002974930371101573546_);fill:#FA7B45;" d="M280,378.5l151.5-38
				L324.8,454.9L280,378.5z"/>
		</g>
	</g>
	<g>
		<g>
			<defs>
				<rect id="SVGID_00000112601865062580640330000002328409662114880900_" width="512" height="512"/>
			</defs>
			<clipPath id="SVGID_00000146475673813221464320000012288355606366628026_">
				<use xlink:href="#SVGID_00000112601865062580640330000002328409662114880900_"  style="overflow:visible;"/>
			</clipPath>
			<path style="clip-path:url(#SVGID_00000146475673813221464320000012288355606366628026_);fill:#FC7F4D;" d="M422.1,468l9.4-127.5
				L324.8,454.9L422.1,468z"/>
		</g>
	</g>
	<g>
		<g>
			<defs>
				<rect id="SVGID_00000172424470401990709860000014213456742062453942_" width="512" height="512"/>
			</defs>
			<clipPath id="SVGID_00000008866398311869194340000001386505774921975713_">
				<use xlink:href="#SVGID_00000172424470401990709860000014213456742062453942_"  style="overflow:visible;"/>
			</clipPath>
			<path style="clip-path:url(#SVGID_00000008866398311869194340000001386505774921975713_);fill:#FE9A42;" d="M512,408.5L422.1,468
				l9.4-127.5l80.5,60.9V408.5z"/>
		</g>
	</g>
	<g>
		<g>
			<defs>
				<rect id="SVGID_00000136375605190008252900000000033470711661975477_" width="512" height="512"/>
			</defs>
			<clipPath id="SVGID_00000022549380570845903330000015349122189710156458_">
				<use xlink:href="#SVGID_00000136375605190008252900000000033470711661975477_"  style="overflow:visible;"/>
			</clipPath>
			<path style="clip-path:url(#SVGID_00000022549380570845903330000015349122189710156458_);fill:#FEB040;" d="M512,401.5
				l-80.5-60.9l80.5,2.3V401.5z"/>
		</g>
	</g>
	<g>
		<g>
			<defs>
				<rect id="SVGID_00000168802828187617615270000006001456726662666424_" width="512" height="512"/>
			</defs>
			<clipPath id="SVGID_00000085949748015264359580000010592887918730363056_">
				<use xlink:href="#SVGID_00000168802828187617615270000006001456726662666424_"  style="overflow:visible;"/>
			</clipPath>
			<path style="clip-path:url(#SVGID_00000085949748015264359580000010592887918730363056_);fill:#FFDD47;" d="M512,342.9l-80.5-2.3
				l80.5-89.2V342.9z"/>
		</g>
	</g>
	<g>
		<g>
			<defs>
				<rect id="SVGID_00000143611419143503766590000001516892570105544622_" width="512" height="512"/>
			</defs>
			<clipPath id="SVGID_00000155130243747937025460000007427165685013168784_">
				<use xlink:href="#SVGID_00000143611419143503766590000001516892570105544622_"  style="overflow:visible;"/>
			</clipPath>
			<path style="clip-path:url(#SVGID_00000155130243747937025460000007427165685013168784_);fill:#FB7440;" d="M512,502.8L422.1,468
				l89.9-59.5V502.8z"/>
		</g>
	</g>
	<g>
		<g>
			<defs>
				<rect id="SVGID_00000098192686937246308430000009315840504214363279_" width="512" height="512"/>
			</defs>
			<clipPath id="SVGID_00000112616697826461746580000010428184801297442199_">
				<use xlink:href="#SVGID_00000098192686937246308430000009315840504214363279_"  style="overflow:visible;"/>
			</clipPath>
			<path style="clip-path:url(#SVGID_00000112616697826461746580000010428184801297442199_);fill:#ED5543;" d="M512,512H345.7
				l76.4-44l89.9,34.7V512z"/>
		</g>
	</g>
	<g>
		<g>
			<defs>
				<rect id="SVGID_00000013151126987050661050000013884666639176064903_" width="512" height="512"/>
			</defs>
			<clipPath id="SVGID_00000013152986398757244530000018012310188668057986_">
				<use xlink:href="#SVGID_00000013151126987050661050000013884666639176064903_"  style="overflow:visible;"/>
			</clipPath>
			<path style="clip-path:url(#SVGID_00000013152986398757244530000018012310188668057986_);fill:#ED5047;" d="M345.7,512h-50.8
				l29.9-57.1L422,468L345.7,512z"/>
		</g>
	</g>
	<g>
		<g>
			<defs>
				<rect id="SVGID_00000089541893749480901960000011908293786566041791_" width="512" height="512"/>
			</defs>
			<clipPath id="SVGID_00000034088436256108552620000007783919130296803498_">
				<use xlink:href="#SVGID_00000089541893749480901960000011908293786566041791_"  style="overflow:visible;"/>
			</clipPath>
			<path style="clip-path:url(#SVGID_00000034088436256108552620000007783919130296803498_);fill:#E3464D;" d="M294.9,512h-33.3
				l-8.6-31.8l71.9-25.3L294.9,512z"/>
		</g>
	</g>
	<g>
		<g>
			<defs>
				<rect id="SVGID_00000030461382331585367240000001586595668027245739_" width="512" height="512"/>
			</defs>
			<clipPath id="SVGID_00000137091486226608916060000014690823799521917371_">
				<use xlink:href="#SVGID_00000030461382331585367240000001586595668027245739_"  style="overflow:visible;"/>
			</clipPath>
			<path style="clip-path:url(#SVGID_00000137091486226608916060000014690823799521917371_);fill:#EF514C;" d="M252.9,480.2
				l71.9-25.3L280,378.5L252.9,480.2z"/>
		</g>
	</g>
	<g>
		<g>
			<defs>
				<rect id="SVGID_00000119831320649276113940000006052475326829675170_" width="512" height="512"/>
			</defs>
			<clipPath id="SVGID_00000002380580282279211410000018430732936315862459_">
				<use xlink:href="#SVGID_00000119831320649276113940000006052475326829675170_"  style="overflow:visible;"/>
			</clipPath>
			<path style="clip-path:url(#SVGID_00000002380580282279211410000018430732936315862459_);fill:#F55F6E;" d="M110.5,347.4
				l113.2-54.9l56.4,86L110.5,347.4z"/>
		</g>
	</g>
	<g>
		<g>
			<defs>
				<rect id="SVGID_00000121986924577981372100000001553258672566311087_" width="512" height="512"/>
			</defs>
			<clipPath id="SVGID_00000153701978438381353260000000484399708949414075_">
				<use xlink:href="#SVGID_00000121986924577981372100000001553258672566311087_"  style="overflow:visible;"/>
			</clipPath>
			<path style="clip-path:url(#SVGID_00000153701978438381353260000000484399708949414075_);fill:#EC4B6F;" d="M110.5,347.4
				l74.7,99.5l94.9-68.4"/>
		</g>
	</g>
	<g>
		<g>
			<defs>
				<rect id="SVGID_00000057110882794888725350000016435765294827067520_" width="512" height="512"/>
			</defs>
			<clipPath id="SVGID_00000098908031849803843800000001246680484746686602_">
				<use xlink:href="#SVGID_00000057110882794888725350000016435765294827067520_"  style="overflow:visible;"/>
			</clipPath>
			<path style="clip-path:url(#SVGID_00000098908031849803843800000001246680484746686602_);fill:#EA4754;" d="M252.9,480.2
				L185.2,447l94.9-68.4L252.9,480.2z"/>
		</g>
	</g>
	<g>
		<g>
			<defs>
				<rect id="SVGID_00000153663640365233322460000006209872988237672855_" width="512" height="512"/>
			</defs>
			<clipPath id="SVGID_00000023974361492387713430000015409901678354582179_">
				<use xlink:href="#SVGID_00000153663640365233322460000006209872988237672855_"  style="overflow:visible;"/>
			</clipPath>
			<path style="clip-path:url(#SVGID_00000023974361492387713430000015409901678354582179_);fill:#E04152;" d="M238.6,512l-53.4-65
				l67.8,33.3l8.6,31.8L238.6,512L238.6,512z"/>
		</g>
	</g>
	<g>
		<g>
			<defs>
				<rect id="SVGID_00000103951165014813737650000010843872271818854543_" width="512" height="512"/>
			</defs>
			<clipPath id="SVGID_00000140005504345036492990000016340512872332147853_">
				<use xlink:href="#SVGID_00000103951165014813737650000010843872271818854543_"  style="overflow:visible;"/>
			</clipPath>
			<path style="clip-path:url(#SVGID_00000140005504345036492990000016340512872332147853_);fill:#E24168;" d="M91.4,512l93.8-65
				l53.4,65.1L91.4,512z"/>
		</g>
	</g>
	<g>
		<g>
			<defs>
				<rect id="SVGID_00000152256082315402187070000000260118067696112023_" width="512" height="512"/>
			</defs>
			<clipPath id="SVGID_00000115508572821682437980000010144233408211885465_">
				<use xlink:href="#SVGID_00000152256082315402187070000000260118067696112023_"  style="overflow:visible;"/>
			</clipPath>
			<path style="clip-path:url(#SVGID_00000115508572821682437980000010144233408211885465_);fill:#D13A63;" d="M91.4,512h-62
				L0,459.4v-16.5l185.2,4L91.4,512z"/>
		</g>
	</g>
	<g>
		<g>
			<defs>
				<rect id="SVGID_00000010989894791169416260000008794868409831363507_" width="512" height="512"/>
			</defs>
			<clipPath id="SVGID_00000100374451205109648050000007556311420064571285_">
				<use xlink:href="#SVGID_00000010989894791169416260000008794868409831363507_"  style="overflow:visible;"/>
			</clipPath>
			<path style="clip-path:url(#SVGID_00000100374451205109648050000007556311420064571285_);fill:#BD355E;" d="M0,512v-52.6
				L29.4,512H0z"/>
		</g>
	</g>
	<g>
		<g>
			<defs>
				<rect id="SVGID_00000154428172343388462980000012147453667936001694_" width="512" height="512"/>
			</defs>
			<clipPath id="SVGID_00000167354708183625640400000001564651885123384989_">
				<use xlink:href="#SVGID_00000154428172343388462980000012147453667936001694_"  style="overflow:visible;"/>
			</clipPath>
			<path style="clip-path:url(#SVGID_00000167354708183625640400000001564651885123384989_);fill:#D33B7A;" d="M0,442.9v-11.6
				l65.6-80.4L185.2,447L0,442.9z"/>
		</g>
	</g>
	<g>
		<g>
			<defs>
				<rect id="SVGID_00000163030510859319723740000011119956466848951476_" width="512" height="512"/>
			</defs>
			<clipPath id="SVGID_00000096777492386865769010000010818717145360403610_">
				<use xlink:href="#SVGID_00000163030510859319723740000011119956466848951476_"  style="overflow:visible;"/>
			</clipPath>
			<path style="clip-path:url(#SVGID_00000096777492386865769010000010818717145360403610_);fill:#DD4073;" d="M65.5,350.9
				L185.2,447l-74.7-99.5L65.5,350.9z"/>
		</g>
	</g>
	<g>
		<g>
			<defs>
				<rect id="SVGID_00000111882484262631852910000010407051449549698735_" width="512" height="512"/>
			</defs>
			<clipPath id="SVGID_00000183240708126706183660000009620057720712753847_">
				<use xlink:href="#SVGID_00000111882484262631852910000010407051449549698735_"  style="overflow:visible;"/>
			</clipPath>
			<path style="clip-path:url(#SVGID_00000183240708126706183660000009620057720712753847_);fill:#6B236B;" d="M65.5,350.9L0,280.3
				v-4.8l110.5,71.9L65.5,350.9z"/>
		</g>
	</g>
	<g>
		<g>
			<defs>
				<rect id="SVGID_00000037680680378577026220000017703840217833960099_" width="512" height="512"/>
			</defs>
			<clipPath id="SVGID_00000073694581503034166930000015889284251900071823_">
				<use xlink:href="#SVGID_00000037680680378577026220000017703840217833960099_"  style="overflow:visible;"/>
			</clipPath>
			<path style="clip-path:url(#SVGID_00000073694581503034166930000015889284251900071823_);fill:#612770;" d="M0,335.4v-55
				l65.5,70.5L0,335.4z"/>
		</g>
	</g>
	<g>
		<g>
			<defs>
				<rect id="SVGID_00000081642318069080925710000009415085399587983239_" width="512" height="512"/>
			</defs>
			<clipPath id="SVGID_00000111894224824208584190000017545351239359365017_">
				<use xlink:href="#SVGID_00000081642318069080925710000009415085399587983239_"  style="overflow:visible;"/>
			</clipPath>
			<path style="clip-path:url(#SVGID_00000111894224824208584190000017545351239359365017_);fill:#8C286B;" d="M0,431.3v-95.9
				l65.5,15.5L0,431.3z"/>
		</g>
	</g>
	<g>
		<g>
			<defs>
				<rect id="SVGID_00000125597099138746038260000007571119242314426790_" width="512" height="512"/>
			</defs>
			<clipPath id="SVGID_00000132778134227718787800000006241261353318807992_">
				<use xlink:href="#SVGID_00000125597099138746038260000007571119242314426790_"  style="overflow:visible;"/>
			</clipPath>
		</g>
	</g>
</g>
<g id="layer1_00000159450455357436027290000009146725095199940260_" transform="translate(-36.380379,-256.78621)">
	<path id="path817-3_00000142877095274698506600000011184462987732776878_" class="st61" d="M159.8,397.8c-0.4,0-0.7,0-1.1,0
		c-1.7,0-3.3,0.1-4.9,0.3c-13,1.5-24.7,8.4-31.9,20.5c-7,11.8-8.8,24.9-5.2,36.9c3.6,12.1,12.3,23,25.1,31.7
		c0.1,0.1,0.2,0.1,0.2,0.2c11,6.6,22,11.1,33.7,13.4c-0.3,4.8-0.3,9.8,0,14.9c0.9,15.4,6.4,29.6,14.6,42.1L160.9,570
		c-3.2,1.3-4.7,4.9-3.4,8c1.3,3.2,4.9,4.7,8.1,3.3l32.6-13.3c6,7.2,13,13.7,20.4,19.4c0.3,0.2,0.6,0.4,0.9,0.6l-19.1,25.2
		c-2.1,2.7-1.6,6.6,1.2,8.7c2.7,2.1,6.6,1.5,8.7-1.3l19.4-25.6c10.6,6.7,21.9,12,33.1,15.5c5.7,10.5,16.9,17.2,29.8,17.2
		c13,0,24.2-7.2,29.9-17.5c11-3.5,22.2-8.8,32.7-15.5l19.6,26c2,2.8,5.9,3.3,8.7,1.3c2.7-2.1,3.3-6,1.2-8.7l-19.4-25.6
		c0.1-0.1,0.3-0.2,0.4-0.3c7.4-5.6,14.2-12,20.3-19.1l31.7,13c3.2,1.3,6.8-0.2,8.1-3.3c1.3-3.2-0.3-6.8-3.4-8l-28.7-11.7
		c8.5-12.6,14.2-26.9,15.4-42.5c0.4-5.1,0.5-10.2,0.2-15.1c11.7-2.3,22.6-6.8,33.5-13.4c0.1,0,0.2-0.1,0.2-0.2
		c12.8-8.7,21.5-19.6,25.1-31.7c3.6-12.1,1.9-25.1-5.2-36.9c-7.2-12.1-18.9-19-31.9-20.5c-1.6-0.2-3.3-0.3-4.9-0.3
		c-11.6-0.2-24,3.4-35.9,10.3c-8.8,5.1-16.7,12.8-22.8,21.3c-17.3-9.9-39.8-15.5-67.5-15.9c-2.5,0-5,0-7.6,0
		c-30.8,0.5-55.5,6.3-74.1,16.9c0-0.1-0.1-0.1-0.1-0.2c-6.3-8.7-14.4-16.8-23.4-22C183.1,401.4,171.1,397.8,159.8,397.8L159.8,397.8
		z"/>
	<path id="path1087_00000150781578272259943020000016400027563912496027_" class="st62" d="M371.1,433.2
		c5.9-8.2,13.6-15.8,21.7-20.5c25.6-14.8,52.7-12.8,65.4,8.6c12.7,21.4,5.8,45.2-18.3,61.4c-12.3,7.4-24.2,11.9-37.4,13.7
		 M213.6,433.2c-5.9-8.2-13.6-15.8-21.7-20.5c-25.6-14.8-52.7-12.8-65.4,8.6c-12.7,21.4-5.8,45.2,18.3,61.4
		c12.3,7.4,24.2,11.9,37.4,13.7"/>
	<path id="path969_00000005265271486962101380000012337681786077735338_" class="st62" d="M403.6,515.4c4.4-57.6-31-98-111.2-96.6
		s-114.7,39.4-111.2,96.6c3.3,54.6,68,94.7,110.8,94.7S399.4,569.9,403.6,515.4z"/>
	<path id="path1084_00000101104558612373531170000014885427460688208514_" d="M330.2,541.3c0,8.9,7.2,16.1,16.1,16.1
		c8.9,0,16.1-7.2,16.1-16.1c0-8.9-7.2-16.1-16.1-16.1C337.4,525.2,330.2,532.4,330.2,541.3z M222.4,541.3c0,9,7.3,16.2,16.2,16.2
		c9,0,16.2-7.3,16.2-16.2c0-9-7.3-16.2-16.2-16.2S222.4,532.4,222.4,541.3z"/>
	<path id="path1008_00000159432767391596693140000003375915804327089805_" class="st63" d="M226.2,589.3l-21,27.8 M358.6,589.3
		l21,27.8 M196.9,561.9l-33.7,13.8 M386.1,561.9l33.7,13.8"/>
	<path id="path1115_00000147194250314889227560000017094108710278492342_" class="st62" d="M292.4,567.8
		c-17.6,0-28.9,12.2-28.5,27.3c0.4,16.3,12.5,27.3,28.5,27.3c16,0,28.5-12.7,28.5-27.3C320.9,580,310,567.8,292.4,567.8z"/>
</g>
</svg>
