<?xml version="1.0" encoding="utf-8"?>
<!-- Generator: Adobe Illustrator 27.6.1, SVG Export Plug-In . SVG Version: 6.00 Build 0)  -->
<svg version="1.1" id="Layer_1" xmlns="http://www.w3.org/2000/svg" xmlns:xlink="http://www.w3.org/1999/xlink" x="0px" y="0px"
	 viewBox="0 0 512 512" style="enable-background:new 0 0 512 512;" xml:space="preserve">
<style type="text/css">
	.st0{fill:none;}
	.st1{fill:#2B5198;}
	.st2{fill:#9EBA3C;}
	.st3{fill:#9DC247;}
	.st4{fill:#86C054;}
	.st5{fill:#6AB76E;}
	.st6{fill:#61B47B;}
	.st7{fill:#469B9B;}
	.st8{fill:#4189A9;}
	.st9{fill:#334890;}
	.st10{fill:#3860AA;}
	.st11{fill:#3E5AA4;}
	.st12{fill:#484494;}
	.st13{fill:#53398C;}
	.st14{fill:#A95B7B;}
	.st15{fill:#8A8967;}
	.st16{fill:#509587;}
	.st17{fill:#C3C83C;}
	.st18{fill:#AAD35E;}
	.st19{fill:#FAED4B;}
	.st20{fill:#B1C83C;}
	.st21{fill:#A6A92E;}
	.st22{fill:#F8E644;}
	.st23{fill:#FDE145;}
	.st24{fill:#FBD44A;}
	.st25{fill:#FAD247;}
	.st26{fill:#F8B456;}
	.st27{fill:#F7804F;}
	.st28{fill:#FD9B45;}
	.st29{fill:#FA7B45;}
	.st30{fill:#FC7F4D;}
	.st31{fill:#FE9A42;}
	.st32{fill:#FEB040;}
	.st33{fill:#FFDD47;}
	.st34{fill:#FB7440;}
	.st35{fill:#EF514C;}
	.st36{fill:#F55F6E;}
	.st37{fill:#EC4B6F;}
	.st38{fill:#EA4754;}
	.st39{fill:#D33B7A;}
	.st40{fill:#DD4073;}
	.st41{fill:#6B236B;}
	.st42{fill:#612770;}
	.st43{fill:#8C286B;}
	.st44{fill:none;stroke:#FFFFFF;stroke-width:5.25;stroke-linecap:round;stroke-linejoin:round;stroke-miterlimit:10;}
	.st45{fill:#FFFFFF;stroke:#000000;stroke-width:5.25;stroke-linecap:round;stroke-linejoin:round;stroke-miterlimit:10;}
	.st46{fill:none;stroke:#000000;stroke-width:6;stroke-linecap:round;stroke-miterlimit:10;}
</style>
<g>
	<polygon class="st0" points="244.9,101.8 244.9,101.8 118.7,0.5 118.7,0.5 	"/>
	<polygon class="st0" points="321.1,36.1 321.1,36.1 355.2,204.9 	"/>
	<polygon class="st0" points="154,157.9 118.8,0.9 146.7,125.5 0,208 0,208 146.7,125.5 	"/>
	<polygon class="st0" points="0,380.3 0,380.3 53.7,397.2 	"/>
	<polygon class="st0" points="255.2,177.7 255.1,177.7 220.5,315.2 101.1,392.3 220.5,315.2 	"/>
	<polygon class="st0" points="424.6,29.5 436.5,0 436.5,0 	"/>
	<polygon class="st0" points="120.6,0 118.2,0 118.7,0.5 	"/>
	<polygon class="st1" points="118.2,0 0,0 0,56.2 118.7,0.5 	"/>
	<polygon class="st2" points="462.3,0 436.4,0 424.6,29.5 	"/>
	<polygon class="st3" points="436.4,0 430.4,0 424.5,29.5 	"/>
	<polygon class="st4" points="430.4,0 398.8,0 424.5,29.5 	"/>
	<polygon class="st4" points="424.5,29.5 398.8,0 339.1,0 321.1,36.1 	"/>
	<polygon class="st5" points="339.1,0 309.3,0 321.1,36.1 	"/>
	<polygon class="st6" points="321.1,36.1 321.1,36.1 321.1,36.1 309.3,0 276.8,0 244.9,101.8 	"/>
	<polygon class="st7" points="244.9,101.8 244.9,101.8 276.8,0 120.6,0 118.7,0.5 	"/>
	<polygon class="st8" points="118.7,0.5 118.8,0.9 154,157.9 244.9,101.8 	"/>
	<polygon class="st9" points="0,56.2 0,178.2 118.7,0.5 	"/>
	<polygon class="st10" points="118.8,0.9 118.7,0.5 118.7,0.5 0,178.2 0,208 146.7,125.5 	"/>
	<polygon class="st11" points="146.7,125.5 0,208 0,214.3 154,157.9 	"/>
	<polygon class="st12" points="0,214.3 0,262.2 154,157.9 	"/>
	<polygon class="st13" points="154,157.9 0,262.2 0,304.6 101.1,392.3 	"/>
	<polygon class="st14" points="154,157.9 101.1,392.3 220.5,315.2 	"/>
	<polygon class="st15" points="255.1,177.7 154,157.9 220.5,315.2 	"/>
	<polygon class="st16" points="244.9,101.8 244.9,101.8 154,157.9 255.1,177.7 	"/>
	<polygon class="st17" points="255.1,177.7 255.2,177.7 255.2,177.7 355.2,204.9 244.9,101.8 	"/>
	<polygon class="st18" points="355.2,204.9 321.1,36.1 321.1,36.1 244.9,101.8 244.9,101.8 244.9,101.8 	"/>
	<polygon class="st19" points="424.5,29.5 355.2,204.9 512,177.2 512,101.5 	"/>
	<polygon class="st20" points="424.5,29.5 321.1,36.1 355.2,204.9 	"/>
	<polygon class="st21" points="424.5,29.5 512,6.6 512,0 462.3,0 424.6,29.5 	"/>
	<polygon class="st22" points="424.5,29.5 512,101.5 512,6.6 	"/>
	<polygon class="st23" points="439.7,382.7 512,275.8 512,177.2 355.2,204.9 	"/>
	<polygon class="st24" points="258.8,300.3 439.7,382.7 355.2,204.9 	"/>
	<polygon class="st25" points="258.8,300.3 355.2,204.9 255.2,177.7 	"/>
	<polygon class="st26" points="255.2,177.7 255.2,177.7 220.5,315.2 258.8,300.3 	"/>
	<polygon class="st27" points="220.5,315.2 280,436.1 258.8,300.3 	"/>
	<polygon class="st28" points="280,436.1 439.7,382.7 258.8,300.3 	"/>
	<polygon class="st29" points="280,436.1 313.4,512 349.2,512 439.7,382.7 	"/>
	<polygon class="st30" points="439.7,382.7 349.2,512 432.5,512 	"/>
	<polygon class="st31" points="432.5,512 486.3,512 512,489.4 512,455.6 439.7,382.7 	"/>
	<polygon class="st32" points="512,455.6 512,385.5 439.7,382.7 	"/>
	<polygon class="st33" points="512,385.5 512,275.8 439.7,382.7 	"/>
	<polygon class="st34" points="512,512 512,489.4 486.3,512 	"/>
	<polygon class="st35" points="264.8,512 313.4,512 280,436.1 	"/>
	<polygon class="st36" points="101.1,392.3 280,436.1 220.5,315.2 	"/>
	<polygon class="st37" points="101.1,392.3 168.5,512 201,512 280,436.1 	"/>
	<polygon class="st38" points="201,512 264.8,512 280,436.1 	"/>
	<polygon class="st39" points="0,485.1 0,512 160.9,512 53.7,397.2 	"/>
	<polygon class="st40" points="53.7,397.2 160.9,512 168.5,512 101.1,392.3 	"/>
	<polygon class="st41" points="101.1,392.3 0,304.6 0,320.1 53.7,397.2 	"/>
	<polygon class="st42" points="0,320.1 0,380.3 53.7,397.2 	"/>
	<polygon class="st43" points="0,380.3 0,485.1 53.7,397.2 	"/>
</g>
<g>
	<g id="layer1_00000092418532499058005660000010785271004094054045_" transform="translate(-36.380379,-256.78621)">
		<path id="path817-3_00000016783017030312699050000005188398321492582052_" class="st44" d="M159.8,397.8c-0.4,0-0.7,0-1.1,0
			c-1.7,0-3.3,0.1-4.9,0.3c-13,1.5-24.7,8.4-31.9,20.5c-7,11.8-8.8,24.9-5.2,36.9s12.3,23,25.1,31.7c0.1,0,0.2,0.1,0.2,0.1
			c11,6.6,22,11.1,33.7,13.4c-0.3,4.9-0.3,9.8,0,14.9c0.9,15.4,6.4,29.6,14.6,42.2L160.9,570c-3.2,1.2-4.8,4.9-3.4,8
			c1.3,3.2,4.9,4.7,8.1,3.3l32.6-13.3c6,7.2,13,13.7,20.4,19.4c0.3,0.2,0.6,0.4,0.9,0.7l-19.1,25.2c-2.1,2.7-1.6,6.6,1.2,8.7
			c2.7,2.1,6.6,1.5,8.7-1.3l19.4-25.6c10.6,6.7,21.9,12,33.1,15.5c5.7,10.5,16.9,17.2,29.8,17.2c13,0,24.2-7.2,29.9-17.5
			c11-3.5,22.2-8.8,32.7-15.5l19.6,26c2,2.8,5.9,3.3,8.7,1.3s3.2-6,1.2-8.7l-19.4-25.6c0.1-0.1,0.3-0.2,0.4-0.3
			c7.4-5.6,14.2-12,20.3-19.1l31.7,13c3.2,1.3,6.8-0.2,8.1-3.3c1.3-3.2-0.3-6.8-3.5-8l-28.7-11.7c8.5-12.6,14.2-26.9,15.4-42.5
			c0.4-5.1,0.5-10.1,0.2-15c11.7-2.3,22.6-6.8,33.5-13.4c0.1,0,0.2-0.1,0.2-0.1c12.9-8.7,21.5-19.6,25.1-31.7
			c3.6-12.1,1.9-25.1-5.2-36.9c-7.2-12.1-18.9-19-31.9-20.5c-1.6-0.2-3.3-0.3-4.9-0.3c-11.6-0.2-24,3.4-35.9,10.3
			c-8.8,5.1-16.7,12.8-22.9,21.2c-17.3-9.9-39.8-15.5-67.5-15.9c-2.5,0-5,0-7.6,0c-30.8,0.5-55.5,6.3-74.2,16.9
			c-0.1-0.1-0.1-0.1-0.1-0.2c-6.3-8.8-14.4-16.8-23.4-22C183,401.4,171.1,397.8,159.8,397.8L159.8,397.8z"/>
		<path id="path1087_00000132810757152909905230000000992923811777627269_" class="st45" d="M371.1,433.2
			c5.9-8.2,13.6-15.8,21.7-20.5c25.6-14.8,52.7-12.8,65.4,8.6c12.7,21.4,5.8,45.1-18.3,61.4c-12.3,7.4-24.2,11.9-37.4,13.7
			 M213.6,433.2c-5.9-8.2-13.6-15.8-21.7-20.5c-25.6-14.8-52.7-12.8-65.4,8.6c-12.7,21.4-5.8,45.1,18.3,61.4
			c12.3,7.4,24.2,11.9,37.4,13.7"/>
		<path id="path969_00000026149126356666619380000005201206681269014717_" class="st45" d="M403.6,515.4c4.4-57.6-31-98-111.2-96.6
			s-114.7,39.4-111.2,96.6c3.3,54.6,68,94.7,110.8,94.7S399.4,569.9,403.6,515.4z"/>
		<path id="path1084_00000059302391024560720460000014722008476341810870_" d="M330.2,541.3c0,8.9,7.2,16.1,16.1,16.1
			s16.1-7.2,16.1-16.1s-7.2-16.1-16.1-16.1S330.2,532.4,330.2,541.3z M222.4,541.3c0,9,7.3,16.2,16.2,16.2s16.2-7.3,16.2-16.2
			c0-9-7.3-16.2-16.2-16.2S222.4,532.4,222.4,541.3z"/>
		<path id="path1008_00000029036177936675273680000011696966013774514822_" class="st46" d="M226.1,589.3l-21,27.8 M358.6,589.3
			l21,27.8 M196.9,561.9l-33.7,13.8 M386.1,561.9l33.7,13.8"/>
		<path id="path1115_00000034811848344641319500000015673934847231637895_" class="st45" d="M292.4,567.8
			c-17.6,0-28.9,12.2-28.5,27.3c0.4,16.3,12.5,27.3,28.5,27.3s28.5-12.7,28.5-27.3C320.9,580,310,567.8,292.4,567.8z"/>
	</g>
</g>
</svg>
