<?xml version="1.0" encoding="UTF-8" standalone="no"?><!DOCTYPE svg PUBLIC "-//W3C//DTD SVG 1.1//EN" "http://www.w3.org/Graphics/SVG/1.1/DTD/svg11.dtd"><svg width="100%" height="100%" viewBox="0 0 886 896" version="1.1" xmlns="http://www.w3.org/2000/svg" xmlns:xlink="http://www.w3.org/1999/xlink" xml:space="preserve" xmlns:serif="http://www.serif.com/" style="fill-rule:evenodd;clip-rule:evenodd;stroke-linejoin:round;stroke-miterlimit:2;"><rect id="Artboard4" x="0" y="0" width="885.415" height="895.374" style="fill:none;"/><clipPath id="_clip1"><rect x="0" y="0" width="885.415" height="895.374"/></clipPath><g clip-path="url(#_clip1)"><path d="M482.225,101.753l-0.064,-0.001l-0.044,0.001l-0.034,0l-0.054,0.003l-0.07,0.002l-0.041,0.004l-0.028,0.001l-0.055,0.005l-0.079,0.007l-0.037,0.005l-0.021,0.002l-0.053,0.007l-0.093,0.013l-0.034,0.006l-0.01,0.001l-0.036,0.007c-0.569,0.101 -1.089,0.319 -1.54,0.626l-0.031,0.02l-0.071,0.052l-0.072,0.052l-0.029,0.023c-0.431,0.333 -0.8,0.76 -1.074,1.269l-0.018,0.032l-0.004,0.009l-0.017,0.03l-120.037,234.396l-252.827,-42.728l-3.533,6.734l180.045,185.014l-114.636,223.848l5.322,5.414l224.968,-110.416l191.115,196.389l6.817,-3.415l-42.563,-269.23l229.39,-112.586l-1.096,-7.535l-254.073,-42.939l-41.38,-261.747l-0.007,-0.034l-0.001,-0.01l-0.007,-0.036c-0.101,-0.569 -0.319,-1.09 -0.626,-1.54l-0.02,-0.031l-0.052,-0.071l-0.052,-0.072l-0.023,-0.029c-0.333,-0.431 -0.759,-0.8 -1.268,-1.074l-0.033,-0.018l-0.009,-0.004l-0.03,-0.017l-0.085,-0.04l-0.048,-0.024l-0.019,-0.009l-0.034,-0.016l-0.072,-0.03l-0.051,-0.023l-0.027,-0.01l-0.037,-0.016l-0.067,-0.024l-0.05,-0.019l-0.032,-0.01l-0.041,-0.015l-0.062,-0.019l-0.049,-0.016l-0.036,-0.01l-0.044,-0.014l-0.059,-0.014l-0.049,-0.014l-0.039,-0.009l-0.046,-0.011l-0.055,-0.011l-0.05,-0.011l-0.043,-0.008l-0.045,-0.008l-0.053,-0.008l-0.052,-0.009l-0.046,-0.006l-0.043,-0.006l-0.051,-0.005l-0.056,-0.007l-0.047,-0.003l-0.041,-0.004l-0.05,-0.003l-0.06,-0.004l-0.047,-0.001l-0.037,-0.002l-0.052,0Zm63.546,431.871l-140.298,68.859l180.508,185.49l-40.21,-254.349Zm-365.532,170.494l211.81,-103.958l-103.896,-106.764l-107.914,210.722Zm111.763,-218.237l107.602,110.571l144.859,-71.098l-23.959,-151.549l-157.477,-26.614l-71.025,138.69Zm236.824,-110.67l23.153,146.454l216.034,-106.031l-239.187,-40.423Zm-242.713,104.618l68.642,-134.036l-238.265,-40.268l169.623,174.304Zm80.738,-140.106l152.335,25.746l-39.044,-246.969l-113.291,221.223Z" style="fill:#43474d;"/><path d="M591.899,799.79l189.016,-386.032l-299.157,-308.005l-376.673,193.788l66.103,413.475l420.711,86.774Zm-4.457,-9.088l-409.227,-84.405c0,0 -64.315,-402.294 -64.315,-402.294c0,-0 366.248,-188.426 366.248,-188.426c-0,0 291.107,299.718 291.107,299.718c-0,-0 -183.813,375.407 -183.813,375.407l-0,0Z" style="fill:#43474d;"/><g><circle cx="171.188" cy="713.016" r="104.793" style="fill:#212224;"/><path d="M171.188,665.861c0,1.514 12.964,28.109 16.005,31.15c3.041,3.041 29.636,16.005 31.151,16.005c-1.515,0 -28.11,12.965 -31.151,16.006c-3.041,3.041 -16.005,29.635 -16.005,31.15c0,-1.515 -12.964,-28.109 -16.005,-31.15c-3.041,-3.041 -29.636,-16.006 -31.151,-16.006c1.515,0 28.11,-12.964 31.151,-16.005c3.041,-3.041 16.005,-29.636 16.005,-31.15Z" style="fill:#43474d;"/></g><g><circle cx="105.085" cy="299.541" r="104.793" style="fill:#212224;"/><path d="M105.085,252.386c0,1.514 12.964,28.109 16.005,31.15c3.041,3.041 29.636,16.005 31.151,16.005c-1.515,0 -28.11,12.964 -31.151,16.005c-3.041,3.041 -16.005,29.636 -16.005,31.151c0,-1.515 -12.964,-28.11 -16.005,-31.151c-3.041,-3.041 -29.636,-16.005 -31.15,-16.005c1.514,0 28.109,-12.964 31.15,-16.005c3.041,-3.041 16.005,-29.636 16.005,-31.15Z" style="fill:#43474d;"/></g><g><circle cx="591.899" cy="791.541" r="104.793" style="fill:#212224;"/><path d="M591.899,744.386c0,1.514 12.964,28.109 16.005,31.15c3.041,3.041 29.636,16.005 31.151,16.005c-1.515,0 -28.11,12.964 -31.151,16.005c-3.041,3.041 -16.005,29.636 -16.005,31.151c0,-1.515 -12.964,-28.11 -16.005,-31.151c-3.041,-3.041 -29.636,-16.005 -31.15,-16.005c1.514,0 28.109,-12.964 31.15,-16.005c3.041,-3.041 16.005,-29.636 16.005,-31.15Z" style="fill:#43474d;"/></g><g><circle cx="780.915" cy="413.758" r="104.793" style="fill:#212224;"/><path d="M780.915,366.602c-0,1.515 12.964,28.11 16.005,31.151c3.041,3.041 29.636,16.005 31.15,16.005c-1.514,-0 -28.109,12.964 -31.15,16.005c-3.041,3.041 -16.005,29.636 -16.005,31.151c-0,-1.515 -12.964,-28.11 -16.005,-31.151c-3.041,-3.041 -29.636,-16.005 -31.151,-16.005c1.515,-0 28.11,-12.964 31.151,-16.005c3.041,-3.041 16.005,-29.636 16.005,-31.151Z" style="fill:#43474d;"/></g><g><circle cx="481.758" cy="105.753" r="104.793" style="fill:#212224;"/><path d="M481.758,58.597c-0,1.515 12.964,28.109 16.005,31.15c3.041,3.041 29.636,16.006 31.15,16.006c-1.514,-0 -28.109,12.964 -31.15,16.005c-3.041,3.041 -16.005,29.636 -16.005,31.15c-0,-1.514 -12.964,-28.109 -16.005,-31.15c-3.041,-3.041 -29.636,-16.005 -31.151,-16.005c1.515,-0 28.11,-12.965 31.151,-16.006c3.041,-3.041 16.005,-29.635 16.005,-31.15Z" style="fill:#43474d;"/></g></g></svg>