<svg xmlns="http://www.w3.org/2000/svg" viewBox="0 0 951.24 626.51"><path fill="none" stroke="#fff" stroke-linecap="round" stroke-linejoin="round" stroke-width="28" d="M167.04 270.79a137.48 137.48 0 0 0-15.65.86c-33.79 3.9-64.22 21.87-82.87 53.28C50.24 355.7 45.74 389.59 55.06 421c9.31 31.4 31.88 59.93 65.3 82.53l.6.4c28.66 17.27 57.19 28.92 87.75 34.95-.74 12.61-.72 25.57.08 38.84 2.44 40.11 16.61 77.04 38.1 109.67l-77 31.44a16 16 0 1 0 12.08 29.63l84.7-34.58a338.97 338.97 0 0 0 53.12 50.57l2.24 1.69-49.61 65.69a16 16 0 1 0 25.53 19.28l50.39-66.72c27.69 17.54 57.08 31.2 86.07 40.26 14.88 27.28 43.97 44.64 77.59 44.64 33.94 0 63.04-18.68 77.8-45.43 28.7-9.22 57.75-22.94 85.15-40.4l51.1 67.65a16 16 0 1 0 25.53-19.28l-50.36-66.69 1-.75a345.83 345.83 0 0 0 52.71-49.64l82.56 33.7a16 16 0 1 0 12.1-29.62l-74.54-30.43c22.17-32.83 37.04-70.03 40.14-110.46a318.93 318.93 0 0 0 .64-39.17c30.36-6.06 58.72-17.67 87.2-34.85.21-.12.41-.25.62-.39 33.4-22.6 55.98-51.13 65.3-82.53 9.31-31.4 4.81-65.3-13.47-96.07-18.65-31.41-49.08-49.38-82.87-53.28-4.22-.48-8.5-.76-12.81-.84-30.2-.55-62.44 8.82-93.43 26.71-22.8 13.16-43.35 33.32-59.44 55.3-45-25.74-103.54-40.24-175.48-41.43-6.45-.1-13.01-.1-19.68 0-80.19 1.31-144.38 16.51-192.87 44a14 14 0 0 0-.37-.57c-16.3-22.77-37.41-43.74-60.9-57.3-30.02-17.33-61.2-26.66-90.6-26.73z" color="#000" font-family="sans-serif" font-weight="400" overflow="visible" style="line-height:normal;font-variant-ligatures:normal;font-variant-position:normal;font-variant-caps:normal;font-variant-numeric:normal;font-variant-alternates:normal;font-feature-settings:normal;text-indent:0;text-align:start;text-decoration-line:none;text-decoration-style:solid;text-decoration-color:#000;text-transform:none;text-orientation:mixed;white-space:normal;shape-padding:0;isolation:auto;mix-blend-mode:normal;solid-color:#000;solid-opacity:1" transform="translate(-36.38 -256.79)"/><path fill="#fff" stroke="#000" stroke-linecap="round" stroke-linejoin="round" stroke-width="28" d="M680.48 106.18c15.29-21.37 35.36-41.11 56.5-53.32 66.67-38.48 137.03-33.22 170.09 22.43 33.09 55.72 14.98 117.49-47.65 159.86-31.95 19.26-62.93 30.92-97.23 35.54M270.76 106.18c-15.29-21.37-35.36-41.11-56.5-53.32C147.58 14.38 77.22 19.64 44.16 75.3c-33.1 55.72-14.98 117.49 47.65 159.86 31.95 19.26 62.93 30.92 97.23 35.54"/><path fill="#fff" stroke="#000" stroke-linecap="round" stroke-linejoin="round" stroke-width="28" d="M764.85 320.08C776.35 170.28 684.2 65.2 475.62 68.6 267.04 72 177.33 171.24 186.39 320.08c8.64 142.08 176.8 246.4 288.12 246.4s279.45-104.54 290.34-246.4z"/><path d="M574.12 387.5a41.81 41.81 0 0 0 41.78 41.85 41.81 41.81 0 0 0 41.78-41.85 41.81 41.81 0 0 0-41.78-41.84 41.81 41.81 0 0 0-41.78 41.84zm-280.56 0a42.2 42.2 0 0 0 42.16 42.24 42.2 42.2 0 0 0 42.17-42.24 42.2 42.2 0 0 0-42.17-42.23 42.2 42.2 0 0 0-42.16 42.23z"/><path fill="none" stroke="#000" stroke-linecap="round" stroke-width="32" d="m303.35 512.46-54.55 72.23m399.09-72.23 54.54 72.23M227.3 441.03l-87.75 35.83m579.85-35.83 87.76 35.83"/><path fill="#fff" stroke="#000" stroke-linecap="round" stroke-linejoin="round" stroke-width="28" d="M475.62 456.3c-45.86 0-75.13 31.85-74.14 71.1 1.07 42.52 32.47 71.1 74.14 71.1s74.05-32.99 74.14-71.1c.1-39.26-28.28-71.1-74.14-71.1z"/></svg>