<svg xmlns="http://www.w3.org/2000/svg" fill="none" viewBox="0 0 27 27">
    <path stroke="currentColor" stroke-linejoin="round" stroke-width="1.5" d="M19.692 2.615H4.308C3.033 2.615 2 3.7 2 5.038v14.539C2 20.915 3.033 22 4.308 22h15.384C20.967 22 22 20.915 22 19.577V5.038c0-1.338-1.033-2.423-2.308-2.423Z"/>
    <path fill="currentColor" fill-rule="evenodd" d="M4.252 22.683c.053 1.671 1.369 3.067 3.056 3.067h15.384c1.723 0 3.058-1.456 3.058-3.173V8.038c0-1.713-1.328-3.166-3.045-3.173v1.5c.82.008 1.545.72 1.545 1.673v14.539c0 .959-.732 1.673-1.558 1.673H7.308c-.796 0-1.503-.662-1.555-1.567H4.252Z" clip-rule="evenodd"/>
    <path fill="currentColor" d="M13.625 11.25a1.125 1.125 0 1 0 0-2.25 1.125 1.125 0 0 0 0 2.25ZM17.375 11.25a1.125 1.125 0 1 0 0-2.25 1.125 1.125 0 0 0 0 2.25ZM13.625 15a1.125 1.125 0 1 0 0-2.25 1.125 1.125 0 0 0 0 2.25ZM17.375 15a1.125 1.125 0 1 0 0-2.25 1.125 1.125 0 0 0 0 2.25ZM6.125 15a1.125 1.125 0 1 0 0-2.25 1.125 1.125 0 0 0 0 2.25ZM9.875 15a1.125 1.125 0 1 0 0-2.25 1.125 1.125 0 0 0 0 2.25ZM6.125 18.75a1.125 1.125 0 1 0 0-2.25 1.125 1.125 0 0 0 0 2.25ZM9.875 18.75a1.125 1.125 0 1 0 0-2.25 1.125 1.125 0 0 0 0 2.25ZM13.625 18.75a1.125 1.125 0 1 0 0-2.25 1.125 1.125 0 0 0 0 2.25Z"/>
    <path stroke="currentColor" stroke-linecap="round" stroke-linejoin="round" stroke-width="1.5" d="M5.846 1v1.615M18.154 1v1.615M22 6.654H2"/>
</svg>