<svg xmlns="http://www.w3.org/2000/svg" fill="none" viewBox="0 0 27 27">
    <path fill="currentColor" fill-rule="evenodd" d="M6.75 1.781a.75.75 0 0 1 .75.75v.938h12V2.53a.75.75 0 0 1 1.5 0v.938h.938a3.281 3.281 0 0 1 3.28 3.281v8.532a6.949 6.949 0 0 0-1.5-.57V9.189H3.282v12.75c0 .983.798 1.78 1.781 1.78H15.36c.177.532.417 1.035.71 1.5H5.062a3.281 3.281 0 0 1-3.282-3.28V6.75a3.281 3.281 0 0 1 3.282-3.281H6V2.53a.75.75 0 0 1 .75-.75Zm10.083 14.996a7.04 7.04 0 0 0-.626.792 1.266 1.266 0 1 1 .626-.792ZM6.75 4.97h15.188c.983 0 1.78.797 1.78 1.781v.938H3.282V6.75c0-.984.798-1.781 1.781-1.781H6.75Zm8.86 8.531a1.266 1.266 0 1 0 0-2.531 1.266 1.266 0 0 0 0 2.531Zm5.484-1.266a1.266 1.266 0 1 1-2.531 0 1.266 1.266 0 0 1 2.53 0ZM7.172 17.72a1.266 1.266 0 1 0 0-2.532 1.266 1.266 0 0 0 0 2.532Zm5.484-1.266a1.266 1.266 0 1 1-2.531 0 1.266 1.266 0 0 1 2.531 0Zm-5.484 5.485a1.266 1.266 0 1 0 0-2.532 1.266 1.266 0 0 0 0 2.532Zm5.484-1.266a1.266 1.266 0 1 1-2.53 0 1.266 1.266 0 0 1 2.53 0Z" clip-rule="evenodd"/>
    <path fill="currentColor" fill-rule="evenodd" d="M22 16.5a5 5 0 1 0 0 10 5 5 0 0 0 0-10Zm-1.94 6.44c-.357 0-.616.263-.616.634 0 .835 1.065 1.572 2.422 1.572 1.538 0 2.627-.835 2.627-2.011 0-.85-.6-1.529-1.401-1.587v-.108c.674-.083 1.206-.722 1.206-1.44 0-1.05-.996-1.787-2.422-1.787-1.318 0-2.358.708-2.358 1.514 0 .36.268.615.644.615.254 0 .46-.103.635-.332.298-.396.63-.581 1.05-.581.547 0 .927.312.927.766s-.39.786-.918.786h-.38c-.342 0-.586.264-.586.606 0 .356.249.615.586.615h.395c.635 0 1.06.352 1.06.87 0 .522-.42.859-1.065.859-.473 0-.86-.205-1.157-.606-.22-.273-.415-.386-.65-.386Z" clip-rule="evenodd"/>
</svg>