<svg xmlns="http://www.w3.org/2000/svg" fill="none" viewBox="1.17 2.18 21.65 19.63"><path stroke="currentColor" stroke-linecap="round" stroke-linejoin="round" stroke-width="1.5" d="M5 17c-.3 0-.6 0-.8-.2a2 2 0 0 1-1-1C3 15.4 3 14.9 3 14V7.2c0-1.1 0-1.7.2-2.1.2-.4.5-.7.9-.9C4.5 4 5 4 6.2 4h11.6c1.1 0 1.7 0 2.1.2.4.2.7.5.9.9.2.4.2 1 .2 2.1V14c0 1 0 1.4-.2 1.8a2 2 0 0 1-1 1l-.8.2m-9.9 3H15l1-.1.1-.5c0-.2-.2-.4-.6-.8l-2.9-3.2-.4-.4H12c-.2 0-.2.2-.4.4l-2.9 3.2c-.4.4-.6.6-.6.8 0 .2 0 .4.2.5l1 .1Z"></path></svg>