<svg xmlns="http://www.w3.org/2000/svg" viewBox="0 0 49.3 56.7"><path stroke="currentColor" d="M24.7 51.3A20.8 20.8 0 0 0 28.3 10V6.3c0-.6-.5-1-1.2-.5l-6.3 4.5c-.6.4-.6.8 0 1.2L27 16c.7.5 1.2.2 1.2-.4V11a19.8 19.8 0 1 1-13.4 2.3c.2-.2.3-.5.2-.7a.5.5 0 0 0-.7-.2 20.8 20.8 0 0 0 10.3 39Zm-6.8-12.5c.3 0 .6-.2.6-.5V22.7c0-.3-.3-.6-.7-.6-.3 0-.4 0-.8.3L13 25c-.2.1-.3.3-.3.5 0 .3.2.5.5.5l.3-.1 3.7-2.4h.2v14.8c0 .3.2.5.5.5Zm11.5.5c3.5 0 5.9-2.3 5.9-5.5 0-3-2.2-5.4-5.4-5.4-1.6 0-3.2.8-4.1 2h-.1l.6-6.9h7.9c.3 0 .5-.2.5-.5s-.2-.5-.5-.5H26c-.5 0-.8.3-.8.8l-.6 7.7c0 .5.2.7.6.7.3 0 .5-.1.7-.3 1.2-1.4 2.4-2 3.9-2 2.5 0 4.3 1.8 4.3 4.4 0 2.6-2 4.5-4.6 4.5-2 0-3.8-1.2-4.2-2.8 0-.4-.2-.5-.5-.5s-.5.2-.5.5v.3c.5 2 2.7 3.5 5.1 3.5Z"/></svg>