<svg xmlns="http://www.w3.org/2000/svg" fill="none" viewBox="0 0 27 27">
    <path fill="currentColor" fill-rule="evenodd" d="M6.75 1.781a.75.75 0 0 1 .75.75v.938h12V2.53a.75.75 0 0 1 1.5 0v.938h.938a3.281 3.281 0 0 1 3.28 3.281v8.532a6.949 6.949 0 0 0-1.5-.57V9.189H3.282v12.75c0 .983.798 1.78 1.781 1.78H15.36c.177.532.417 1.035.71 1.5H5.062a3.281 3.281 0 0 1-3.282-3.28V6.75a3.281 3.281 0 0 1 3.282-3.281H6V2.53a.75.75 0 0 1 .75-.75Zm10.083 14.996a7.04 7.04 0 0 0-.626.792 1.266 1.266 0 1 1 .626-.792ZM6.75 4.97h15.188c.983 0 1.78.797 1.78 1.781v.938H3.282V6.75c0-.984.798-1.781 1.781-1.781H6.75Zm8.86 8.531a1.266 1.266 0 1 0 0-2.531 1.266 1.266 0 0 0 0 2.531Zm5.484-1.266a1.266 1.266 0 1 1-2.531 0 1.266 1.266 0 0 1 2.53 0ZM7.172 17.72a1.266 1.266 0 1 0 0-2.532 1.266 1.266 0 0 0 0 2.532Zm5.484-1.266a1.266 1.266 0 1 1-2.531 0 1.266 1.266 0 0 1 2.531 0Zm-5.484 5.485a1.266 1.266 0 1 0 0-2.532 1.266 1.266 0 0 0 0 2.532Zm5.484-1.266a1.266 1.266 0 1 1-2.53 0 1.266 1.266 0 0 1 2.53 0Z" clip-rule="evenodd"/>
    <path fill="currentColor" fill-rule="evenodd" d="M22 16.5a5 5 0 1 0 0 10 5 5 0 0 0 0-10Zm.14 1.718c-1.802 0-2.823 1.264-2.823 3.5 0 1.046.23 1.9.67 2.481.463.62 1.166.943 2.03.943 1.495 0 2.506-.948 2.506-2.369 0-1.264-.85-2.148-2.07-2.148-.719 0-1.353.38-1.588.952h-.044c.005-1.372.46-2.119 1.328-2.119.332 0 .596.103.923.352.264.19.425.254.635.254.357 0 .605-.235.605-.572 0-.288-.214-.605-.57-.845-.416-.278-.982-.43-1.602-.43Zm-.117 5.693c-.591 0-1.021-.444-1.021-1.079 0-.615.42-1.06 1.006-1.06.59 0 .996.435.996 1.065 0 .64-.405 1.074-.982 1.074Z" clip-rule="evenodd"/>
</svg>