<svg xmlns="http://www.w3.org/2000/svg" fill="none" viewBox="0 0 27 27">
    <path fill="currentColor" fill-rule="evenodd" d="M6.75 1.781a.75.75 0 0 1 .75.75v.938h12V2.53a.75.75 0 0 1 1.5 0v.938h.938a3.281 3.281 0 0 1 3.28 3.281v8.532a6.949 6.949 0 0 0-1.5-.57V9.189H3.282v12.75c0 .983.798 1.78 1.781 1.78H15.36c.177.532.417 1.035.71 1.5H5.062a3.281 3.281 0 0 1-3.282-3.28V6.75a3.281 3.281 0 0 1 3.282-3.281H6V2.53a.75.75 0 0 1 .75-.75Zm10.083 14.996a7.04 7.04 0 0 0-.626.792 1.266 1.266 0 1 1 .626-.792ZM6.75 4.97h15.188c.983 0 1.78.797 1.78 1.781v.938H3.282V6.75c0-.984.798-1.781 1.781-1.781H6.75Zm8.86 8.531a1.266 1.266 0 1 0 0-2.531 1.266 1.266 0 0 0 0 2.531Zm5.484-1.266a1.266 1.266 0 1 1-2.531 0 1.266 1.266 0 0 1 2.53 0ZM7.172 17.72a1.266 1.266 0 1 0 0-2.532 1.266 1.266 0 0 0 0 2.532Zm5.484-1.266a1.266 1.266 0 1 1-2.531 0 1.266 1.266 0 0 1 2.531 0Zm-5.484 5.485a1.266 1.266 0 1 0 0-2.532 1.266 1.266 0 0 0 0 2.532Zm5.484-1.266a1.266 1.266 0 1 1-2.53 0 1.266 1.266 0 0 1 2.53 0Z" clip-rule="evenodd"/>
    <path fill="currentColor" fill-rule="evenodd" d="M22 16.5a5 5 0 1 0 0 10 5 5 0 0 0 0-10Zm-1.782 6.81a.584.584 0 0 0-.606.601c0 .327.235.63.61.855.396.239.933.376 1.524.376 1.817 0 2.847-1.255 2.847-3.506 0-2.163-.991-3.428-2.68-3.428-1.5 0-2.506.942-2.506 2.344 0 1.28.85 2.178 2.066 2.178.722 0 1.333-.377 1.572-.972h.044c0 1.352-.464 2.139-1.343 2.139-.42 0-.693-.142-1-.381-.21-.157-.352-.205-.528-.205Zm1.68-3.871c.576 0 .986.449.986 1.069 0 .615-.41 1.045-.986 1.045-.577 0-.977-.43-.977-1.05 0-.625.4-1.064.977-1.064Z" clip-rule="evenodd"/>
</svg>